<?xml version="1.0" encoding="utf-8"?>
<!-- Generator: Adobe Illustrator 19.2.1, SVG Export Plug-In . SVG Version: 6.00 Build 0)  -->
<svg version="1.1" id="Layer_1" xmlns="http://www.w3.org/2000/svg" xmlns:xlink="http://www.w3.org/1999/xlink" x="0px" y="0px"
	 viewBox="0 0 58.3 59.7" style="enable-background:new 0 0 58.3 59.7;" xml:space="preserve">
<style type="text/css">
	.st0{clip-path:url(#SVGID_2_);fill:#FFDB0B;}
	.st1{clip-path:url(#SVGID_2_);fill:#9F8AC0;}
	.st2{clip-path:url(#SVGID_2_);fill:none;stroke:#5D6883;stroke-width:2;stroke-linecap:round;}
	.st3{clip-path:url(#SVGID_2_);fill:#5D6883;}
	.st4{clip-path:url(#SVGID_2_);fill:#6D788E;}
	.st5{clip-path:url(#SVGID_2_);fill:none;stroke:#5D6883;stroke-width:2;stroke-linecap:round;stroke-linejoin:round;}
</style>
<g>
	<defs>
		<rect id="SVGID_1_" y="0" width="58.3" height="59.7"/>
	</defs>
	<clipPath id="SVGID_2_">
		<use xlink:href="#SVGID_1_"  style="overflow:visible;"/>
	</clipPath>
	<path class="st0" d="M25.3,14.1C17,11,6.8,17.7,2.7,29s-0.6,22.9,7.7,26C18.9,58,29,51.3,33.1,40C37.2,28.7,33.7,17.1,25.3,14.1"/>
	<path class="st1" d="M31.5,43.6c3.5-5.1,2.3-11,4.1-10.4c8.4,3,9.8-1.5,5.7,9.8c-4.1,11.3-14.2,18-22.6,14.9L16.2,57
		c-2.8-1,4.5-2.4,9-5.5L31.5,43.6z"/>
	<path class="st2" d="M26.5,14.5c2,0.7,5.3,1.9,7.1,2.6c8.4,3,11.8,14.7,7.7,25.9c-4.1,11.3-14.2,18-22.6,14.9L16.2,57
		c-2.8-1-1.5-0.6-4.6-1.7"/>
	<path class="st3" d="M14.7,56.7c-1.5,0-3.1-0.3-4.5-0.8C5.8,54.3,2.5,50.5,1,45.3c-1.5-5.1-1.2-11,0.8-16.7
		c4.3-11.8,15-18.7,23.9-15.5l0,0c8.9,3.2,12.6,15.5,8.3,27.2C30.5,50.2,22.4,56.7,14.7,56.7z M21.1,14.3c-6.9,0-14.2,6-17.4,15
		c-1.9,5.3-2.2,10.7-0.8,15.4c1.4,4.6,4.2,7.9,7.9,9.2c7.9,2.9,17.4-3.6,21.3-14.3C36.1,28.9,32.9,17.9,25,15
		C23.7,14.5,22.4,14.3,21.1,14.3z"/>
	<line class="st1" x1="23" y1="54.2" x2="28.5" y2="57.2"/>
	<line class="st2" x1="23" y1="54.2" x2="28.5" y2="57.2"/>
	<line class="st1" x1="28.5" y1="49.4" x2="34.7" y2="52.8"/>
	<line class="st2" x1="28.5" y1="49.4" x2="34.7" y2="52.8"/>
	<line class="st1" x1="31.7" y1="44.6" x2="37.9" y2="48"/>
	<line class="st2" x1="31.7" y1="44.6" x2="37.9" y2="48"/>
	<line class="st1" x1="34.5" y1="39.9" x2="40.7" y2="43.2"/>
	<line class="st2" x1="34.5" y1="39.9" x2="40.7" y2="43.2"/>
	<line class="st1" x1="35.4" y1="34.9" x2="42.3" y2="38.6"/>
	<line class="st2" x1="35.4" y1="34.9" x2="42.3" y2="38.6"/>
	<path class="st4" d="M20.3,6.7l7.4,14.2c0.8,1.6,2.4,2.6,4.2,2.6l16.9-1.4L43,35.3l-0.1,0c-5.8-2-11.9-3.2-18.1-3.4l-0.9,0l-0.6-1
		c-2.9-5.2-6.7-9.9-11-14c-0.1-0.1-0.2-0.2-0.3-0.3L20.3,6.7z"/>
	<path class="st5" d="M20.3,6.7l7.4,14.2c0.8,1.6,2.4,2.6,4.2,2.6l16.9-1.4L43,35.3l-0.1,0c-5.8-2-11.9-3.2-18.1-3.4l-0.9,0l-0.6-1
		c-2.9-5.2-6.7-9.9-11-14c-0.1-0.1-0.2-0.2-0.3-0.3L20.3,6.7z"/>
	<path class="st4" d="M26.8,25.3l-14-21.3c-1.1-1.6-0.1-3.2,1.9-2.9l24.8,3.4c0.7,0.1,1.4,0.4,1.9,0.9c0.3,0.2,0.5,0.5,0.7,0.8
		l14.5,20.5c1.1,1.6,0.2,3.2-1.7,3l-2.6-0.3L29.7,27C28.6,26.9,27.5,26.2,26.8,25.3"/>
	<path class="st5" d="M26.8,25.3l-14-21.3c-1.1-1.6-0.1-3.2,1.9-2.9l24.8,3.4c0.7,0.1,1.4,0.4,1.9,0.9c0.3,0.2,0.5,0.5,0.7,0.8
		l14.5,20.5c1.1,1.6,0.2,3.2-1.7,3l-2.6-0.3L29.7,27C28.6,26.9,27.5,26.2,26.8,25.3z"/>
	<path class="st0" d="M54.7,52L54.7,52c1.5,0,2.6-1.2,2.6-2.6c0-1.5-1.2-2.6-2.6-2.6S52,47.9,52,49.4C52,50.9,53.2,52,54.7,52"/>
	<path class="st5" d="M54.7,52L54.7,52c1.5,0,2.6-1.2,2.6-2.6c0-1.5-1.2-2.6-2.6-2.6S52,47.9,52,49.4C52,50.9,53.2,52,54.7,52z"/>
	<polyline class="st5" points="37,15.3 54.7,29.5 54.7,46.8 	"/>
</g>
</svg>
