<?xml version="1.0" encoding="utf-8"?>
<!-- Generator: Adobe Illustrator 22.0.0, SVG Export Plug-In . SVG Version: 6.00 Build 0)  -->
<svg version="1.1" id="Layer_1" xmlns="http://www.w3.org/2000/svg" xmlns:xlink="http://www.w3.org/1999/xlink" x="0px" y="0px"
	 viewBox="0 0 71.8 71.7" style="enable-background:new 0 0 71.8 71.7;" xml:space="preserve">
<style type="text/css">
	.st0{opacity:0.5;fill:none;stroke:#5D6884;stroke-width:2;stroke-linecap:round;stroke-linejoin:round;}
	.st1{fill:#FFDB0C;stroke:#5E6984;stroke-width:2;stroke-miterlimit:10;}
	.st2{fill:none;}
	.st3{fill:#FFFFFF;}
	.st4{fill:#AB9DCA;}
	.st5{fill:#5E6984;}
	.st6{fill:none;stroke:#5E6984;stroke-miterlimit:10;}
	.st7{fill:none;stroke:#5E6984;stroke-width:2;stroke-miterlimit:10;}
	.st8{clip-path:url(#SVGID_2_);fill:#DBD865;}
	.st9{clip-path:url(#SVGID_2_);}
	.st10{fill:#CEC9E2;}
	.st11{fill:#9E88BF;}
	.st12{fill:#BBB2D6;}
	.st13{fill:#FFDB0B;stroke:#5D6884;stroke-width:2;stroke-linecap:round;stroke-linejoin:round;}
</style>
<g>
	<line class="st0" x1="21.8" y1="25.8" x2="37.1" y2="61.2"/>
	<line class="st0" x1="54.7" y1="25.8" x2="37.6" y2="61.7"/>
	<g>
		<polyline class="st0" points="67.5,27.3 38.2,68.5 38.2,24.1 		"/>
		<line class="st0" x1="9.1" y1="27.6" x2="38.2" y2="68.5"/>
	</g>
</g>
<circle class="st1" cx="37.8" cy="52.6" r="17.5"/>
<path class="st2" d="M38.5,15.2C38.5,15.2,38.5,15.2,38.5,15.2C38.5,15.2,38.5,15.2,38.5,15.2L38.5,15.2
	C38.5,15.2,38.5,15.2,38.5,15.2z"/>
<path class="st2" d="M38.4,15.2c0,0-0.5,0-0.7,0C37.9,15.2,38.4,15.2,38.4,15.2L38.4,15.2z"/>
<path class="st2" d="M38.5,15.2c0.2,0,0.4,0,0.6,0C38.9,15.2,38.7,15.2,38.5,15.2z"/>
<path class="st2" d="M38.5,15.2L38.5,15.2C38.5,15.2,38.5,15.2,38.5,15.2C38.5,15.2,38.5,15.2,38.5,15.2z"/>
<path class="st2" d="M38.5,15.2C38.5,15.2,38.5,15.2,38.5,15.2C38.5,15.2,38.5,15.2,38.5,15.2C38.5,15.2,38.5,15.2,38.5,15.2z"/>
<path class="st3" d="M38.5,15.2C38.5,15.2,38.5,15.2,38.5,15.2C38.5,15.2,38.5,15.2,38.5,15.2C38.5,15.2,38.5,15.2,38.5,15.2z"/>
<path class="st4" d="M42.6,1.9C42.6,1.9,42.6,1.9,42.6,1.9c-1.1-0.2-2.3-0.3-3.5-0.3c0,0,0,0-0.1,0c-0.2,0-0.6,0-0.6,0
	c0,0-0.1,0-0.1,0c0,0,0,0-0.1,0c0,0-0.1,0-0.1,0c0,0,0,0,0,0c0,0,0,0,0,0c0,0-0.4,0-0.6,0c0,0,0,0-0.1,0c-1.2,0.1-2.4,0.2-3.5,0.3
	c0,0,0,0-0.1,0c-1.5,0.2-2.9,0.5-4.2,0.8c-2.7,0.7-5,1.8-7,3C12.6,11.9,10.4,22.9,9.9,26.5c0,0.3,0.2,0.5,0.4,0.6
	c0.1,0,0.3,0,0.4-0.1c0.5-0.3,0.9-0.6,1.4-0.8c4.7-2.5,8.4-1.6,10.4-0.7c0.3,0.1,0.6,0.2,0.9,0.2c0,0,0,0,0.1,0c0.1,0,0.2,0,0.2,0
	c0.6,0,1.2-0.2,1.7-0.6c4.7-3.7,9.6-1.9,11.8-0.8c0.3,0.2,0.7,0.3,1.1,0.3c0,0,0,0,0,0c0,0,0,0,0.1,0c0,0,0,0,0.1,0
	c0.4,0,0.8-0.1,1.1-0.3c2.1-1.1,7.1-3,11.8,0.8c0.5,0.4,1.1,0.6,1.7,0.6c0.1,0,0.1,0,0.2,0c0,0,0,0,0,0c0.3,0,0.6-0.1,0.9-0.2
	c1.9-0.9,5.6-1.8,10.3,0.7c0.5,0.3,1,0.5,1.5,0.9c0.1,0.1,0.3,0.1,0.4,0.1c0.2-0.1,0.5-0.3,0.4-0.6C66.1,21.9,62.5,4.6,42.6,1.9z"/>
<g>
	<g>
		<g>
			<path class="st5" d="M40.7,44.8h-5.7c-1.6,0-2.9,1.3-2.9,2.9v9.7c0,0.2,0.1,0.3,0.3,0.3h1.5l-1.6,2.2c-0.1,0.1-0.1,0.3,0.1,0.4
				c0,0,0.1,0.1,0.2,0.1c0.1,0,0.2,0,0.2-0.1l0.5-0.8c0.1,0.1,0.1,0.1,0.2,0.1h8.8c0.1,0,0.1,0,0.2-0.1l0.5,0.8
				c0.1,0.1,0.1,0.1,0.2,0.1c0.1,0,0.1,0,0.2-0.1c0.1-0.1,0.2-0.3,0.1-0.4l-1.6-2.2h1.5c0.2,0,0.3-0.1,0.3-0.3v-9.7
				C43.6,46.2,42.3,44.8,40.7,44.8z M42.1,59h-8.5l0.9-1.3c0,0,0,0,0,0h6.7c0,0,0,0,0,0L42.1,59z M43,57.1H32.6v-4.6H43V57.1z
				 M43,52h-5.8l1.5-1.7c0.1-0.1,0.1-0.2,0-0.3c-0.1-0.1-0.2-0.1-0.3,0l-1.8,2h-1.3l0.6-0.6c0.1-0.1,0.1-0.2,0-0.3
				c-0.1-0.1-0.2-0.1-0.3,0L34.8,52h-2.2v-3H43V52z M43,48.5H32.6v-0.7c0-1.3,1.1-2.4,2.4-2.4h5.7c1.3,0,2.4,1.1,2.4,2.4V48.5z
				 M39.5,46.3h-3.3c-0.2,0-0.3,0.1-0.3,0.3c0,0.2,0.1,0.3,0.3,0.3h3.3c0.2,0,0.3-0.1,0.3-0.3C39.8,46.5,39.6,46.3,39.5,46.3z"/>
		</g>
		<g>
			<path class="st6" d="M40.7,44.8h-5.7c-1.6,0-2.9,1.3-2.9,2.9v9.7c0,0.2,0.1,0.3,0.3,0.3h1.5l-1.6,2.2c-0.1,0.1-0.1,0.3,0.1,0.4
				c0,0,0.1,0.1,0.2,0.1c0.1,0,0.2,0,0.2-0.1l0.5-0.8c0.1,0.1,0.1,0.1,0.2,0.1h8.8c0.1,0,0.1,0,0.2-0.1l0.5,0.8
				c0.1,0.1,0.1,0.1,0.2,0.1c0.1,0,0.1,0,0.2-0.1c0.1-0.1,0.2-0.3,0.1-0.4l-1.6-2.2h1.5c0.2,0,0.3-0.1,0.3-0.3v-9.7
				C43.6,46.2,42.3,44.8,40.7,44.8z M42.1,59h-8.5l0.9-1.3c0,0,0,0,0,0h6.7c0,0,0,0,0,0L42.1,59z M43,57.1H32.6v-4.6H43V57.1z
				 M43,52h-5.8l1.5-1.7c0.1-0.1,0.1-0.2,0-0.3c-0.1-0.1-0.2-0.1-0.3,0l-1.8,2h-1.3l0.6-0.6c0.1-0.1,0.1-0.2,0-0.3
				c-0.1-0.1-0.2-0.1-0.3,0L34.8,52h-2.2v-3H43V52z M43,48.5H32.6v-0.7c0-1.3,1.1-2.4,2.4-2.4h5.7c1.3,0,2.4,1.1,2.4,2.4V48.5z
				 M39.5,46.3h-3.3c-0.2,0-0.3,0.1-0.3,0.3c0,0.2,0.1,0.3,0.3,0.3h3.3c0.2,0,0.3-0.1,0.3-0.3C39.8,46.5,39.6,46.3,39.5,46.3z"/>
		</g>
	</g>
	<circle class="st5" cx="34.9" cy="54.8" r="1"/>
	<circle class="st5" cx="40.8" cy="54.8" r="1"/>
	<circle class="st7" cx="37.8" cy="52.6" r="13.2"/>
</g>
<g>
	<defs>
		<path id="SVGID_1_" d="M68.5,28c-0.7-5.3-4.9-26.1-29.4-27.3c0,0,0,0-0.1,0c-0.2,0-0.6,0-0.6,0c0,0-0.1,0-0.1,0c0,0,0,0-0.1,0
			c0,0-0.1,0-0.1,0c0,0-0.1,0-0.1,0c0,0-0.4,0-0.6,0c0,0,0,0-0.1,0C12.9,1.9,8.7,22.6,8.1,28c-0.1,0.5,0.5,0.8,0.9,0.5
			c5.8-3.9,10.3-2.8,12.5-1.7c0.4,0.2,0.8,0.3,1.2,0.3c0.7,0,1.3-0.2,1.8-0.6c5-4.1,10.2-2.1,12.5-0.8c0.4,0.2,0.8,0.3,1.2,0.3
			c0,0,0,0,0.1,0c0,0,0,0,0.1,0c0.4,0,0.8-0.1,1.2-0.3c2.3-1.2,7.5-3.2,12.5,0.8c0.5,0.4,1.1,0.6,1.8,0.6c0.4,0,0.8-0.1,1.2-0.3
			c2.3-1.1,6.8-2.2,12.5,1.7C68,28.8,68.6,28.4,68.5,28z"/>
	</defs>
	<clipPath id="SVGID_2_">
		<use xlink:href="#SVGID_1_"  style="overflow:visible;"/>
	</clipPath>
	<rect x="21.7" y="2" class="st8" width="13.6" height="13.4"/>
	<g class="st9">
		<path class="st10" d="M37.5,0C11.7,1.2,7.3,23,6.6,28.7c-0.1,0.5,0.5,0.8,0.9,0.6c8.8-6,14.9-0.7,14.9-0.7S23.3,1,37.5,0z"/>
		<path class="st11" d="M39,0C53,1,54.1,27.4,54.2,28.5c0,0,0,0,0,0c0,0,6-5.3,14.9,0.7c0.4,0.3,1-0.1,0.9-0.6
			C69.3,23,64.9,1.2,39,0z"/>
		<path class="st12" d="M37.5,0C23.2,1,22.3,28.5,22.3,28.5c7.1-7.7,15.4-2,15.9-1.6V0C38.2,0,37.7,0,37.5,0z"/>
		<path class="st4" d="M39,0c-0.2,0-0.4,0-0.6,0c0,0-0.1,0-0.1,0c0,0-0.1,0-0.1,0v27c0,0,0.1,0,0.1,0s8.6-6.5,15.9,1.5
			C54.1,27.4,53,1,39,0z"/>
	</g>
</g>
<g>
	<path class="st13" d="M28.3,70.1H13.8c-1.4,0-2.5-1.1-2.5-2.5v0c0-1.4,1.1-2.5,2.5-2.5h2.1h12.4c1.4,0,2.5,1.1,2.5,2.5v0
		C30.8,69,29.7,70.1,28.3,70.1z"/>
	<line class="st13" x1="15.8" y1="70.1" x2="15.8" y2="65.2"/>
	<line class="st13" x1="20.4" y1="70.1" x2="20.4" y2="65.2"/>
	<line class="st13" x1="25.3" y1="70.1" x2="25.3" y2="65.2"/>
</g>
<g>
	<path class="st13" d="M62.4,70.1H47.8c-1.4,0-2.5-1.1-2.5-2.5v0c0-1.4,1.1-2.5,2.5-2.5H50h12.4c1.4,0,2.5,1.1,2.5,2.5v0
		C64.9,69,63.8,70.1,62.4,70.1z"/>
	<line class="st13" x1="49.9" y1="70.1" x2="49.9" y2="65.2"/>
	<line class="st13" x1="54.4" y1="70.1" x2="54.4" y2="65.2"/>
	<line class="st13" x1="59.3" y1="70.1" x2="59.3" y2="65.2"/>
</g>
<g>
	<path class="st13" d="M68.3,65.1H53.8c-1.4,0-2.5-1.1-2.5-2.5v0c0-1.4,1.1-2.5,2.5-2.5h2.1h12.4c1.4,0,2.5,1.1,2.5,2.5v0
		C70.8,64,69.7,65.1,68.3,65.1z"/>
	<line class="st13" x1="55.8" y1="65.1" x2="55.8" y2="60.2"/>
	<line class="st13" x1="60.3" y1="65.1" x2="60.3" y2="60.2"/>
	<line class="st13" x1="65.3" y1="65.1" x2="65.3" y2="60.2"/>
</g>
<g>
	<path class="st13" d="M17.1,62.5L4.8,70.3c-1.1,0.7-2.7,0.4-3.4-0.8h0c-0.7-1.1-0.4-2.7,0.8-3.4L3.9,65l10.5-6.6
		c1.1-0.7,2.7-0.4,3.4,0.8l0,0C18.6,60.3,18.2,61.8,17.1,62.5z"/>
	<line class="st13" x1="6.5" y1="69.2" x2="3.9" y2="65"/>
	<line class="st13" x1="10.3" y1="66.8" x2="7.7" y2="62.6"/>
	<line class="st13" x1="14.5" y1="64.1" x2="11.9" y2="60"/>
</g>
</svg>
