<?xml version="1.0" encoding="utf-8"?>
<!-- Generator: Adobe Illustrator 22.0.0, SVG Export Plug-In . SVG Version: 6.00 Build 0)  -->
<svg version="1.1" id="Layer_1" xmlns="http://www.w3.org/2000/svg" xmlns:xlink="http://www.w3.org/1999/xlink" x="0px" y="0px"
	 viewBox="0 0 378.1 305.1" style="enable-background:new 0 0 378.1 305.1;" xml:space="preserve">
<style type="text/css">
	.st0{fill:#87DEE8;stroke:#5C6783;stroke-width:2;stroke-linecap:round;stroke-linejoin:round;}
	.st1{fill:#FFFFFF;stroke:#5C6783;stroke-width:2;stroke-linecap:round;stroke-linejoin:round;}
	.st2{fill:#D7F4F7;stroke:#5C6783;stroke-width:2;stroke-linecap:square;}
	.st3{fill:#A08AC9;stroke:#5C6783;stroke-width:2;stroke-linecap:round;stroke-linejoin:round;}
	.st4{fill:#7A839B;stroke:#5C6783;stroke-width:2;stroke-miterlimit:10;}
</style>
<g id="Rectangle-20_1_" transform="translate(15.000000, 2.000000) scale(1, -1) translate(-15.000000, -2.000000) ">
	<path class="st0" d="M40.3-3.3H70v0C70,0.2,67.2,3,63.7,3h-17C43.2,3,40.3,0.2,40.3-3.3L40.3-3.3z"/>
</g>
<g id="Rectangle-20_2_" transform="translate(15.000000, 2.000000) scale(1, -1) translate(-15.000000, -2.000000) ">
	<path class="st0" d="M308.1-3.3h29.6v0c0,3.5-2.8,6.3-6.3,6.3h-17C310.9,3,308.1,0.2,308.1-3.3L308.1-3.3z"/>
</g>
<g id="Rectangle-20_4_">
	<rect x="51.6" y="201.3" class="st1" width="7.2" height="102.8"/>
</g>
<g id="Rectangle-20_5_">
	<rect x="48.3" y="201.3" class="st2" width="13.7" height="9.1"/>
</g>
<g id="Rectangle-20_7_">
	<rect x="319.3" y="201.3" class="st1" width="7.2" height="102.8"/>
</g>
<g id="Rectangle-20_6_">
	<rect x="316.1" y="201.3" class="st2" width="13.7" height="9.1"/>
</g>
<g>
	<rect x="1" y="7.3" class="st3" width="376.1" height="194"/>
	<rect x="8.6" y="14.9" class="st4" width="360.8" height="178.9"/>
</g>
</svg>
