<?xml version="1.0" encoding="utf-8"?>
<!-- Generator: Adobe Illustrator 22.0.0, SVG Export Plug-In . SVG Version: 6.00 Build 0)  -->
<svg version="1.1" id="Layer_1" xmlns="http://www.w3.org/2000/svg" xmlns:xlink="http://www.w3.org/1999/xlink" x="0px" y="0px"
	 viewBox="0 0 71.8 50.2" style="enable-background:new 0 0 71.8 50.2;" xml:space="preserve">
<style type="text/css">
	.st0{fill:#FFDA06;stroke:#5C6783;stroke-width:2;stroke-linecap:round;stroke-linejoin:round;}
	.st1{fill:#FFDA06;}
	.st2{fill:none;stroke:#5C6783;stroke-width:2;stroke-linecap:round;stroke-linejoin:round;stroke-dasharray:0,6.0078;}
	.st3{fill:#9E8BC1;stroke:#5C6783;stroke-width:2;stroke-linecap:round;stroke-linejoin:round;}
	.st4{fill:#9E8BC1;stroke:#FFFFFF;stroke-width:2;stroke-linecap:round;stroke-linejoin:round;}
	.st5{fill:#FFDA06;stroke:#5D6782;stroke-width:2;stroke-linecap:round;stroke-linejoin:round;}
</style>
<circle class="st0" cx="38.8" cy="24.7" r="23.7"/>
<g>
	<circle class="st1" cx="38.8" cy="24.7" r="21"/>
	<circle class="st2" cx="38.8" cy="24.7" r="21"/>
</g>
<circle class="st3" cx="38.8" cy="24.7" r="18.2"/>
<path class="st4" d="M44.5,30.5c-1.5,1.5-3.5,2.4-5.8,2.4s-4.3-0.9-5.8-2.4c-1.5-1.5-2.4-3.5-2.4-5.8s0.9-4.3,2.4-5.8
	c1.5-1.5,3.5-2.4,5.8-2.4s4.3,0.9,5.8,2.4"/>
<g>
	<path class="st5" d="M28.3,48.6H13.8c-1.4,0-2.5-1.1-2.5-2.5v0c0-1.4,1.1-2.5,2.5-2.5h2.1h12.4c1.4,0,2.5,1.1,2.5,2.5v0
		C30.8,47.5,29.7,48.6,28.3,48.6z"/>
	<line class="st5" x1="15.8" y1="48.6" x2="15.8" y2="43.7"/>
	<line class="st5" x1="20.4" y1="48.6" x2="20.4" y2="43.7"/>
	<line class="st5" x1="25.3" y1="48.6" x2="25.3" y2="43.7"/>
</g>
<g>
	<path class="st5" d="M62.4,48.6H47.8c-1.4,0-2.5-1.1-2.5-2.5v0c0-1.4,1.1-2.5,2.5-2.5H50h12.4c1.4,0,2.5,1.1,2.5,2.5v0
		C64.9,47.5,63.8,48.6,62.4,48.6z"/>
	<line class="st5" x1="49.9" y1="48.6" x2="49.9" y2="43.7"/>
	<line class="st5" x1="54.4" y1="48.6" x2="54.4" y2="43.7"/>
	<line class="st5" x1="59.3" y1="48.6" x2="59.3" y2="43.7"/>
</g>
<g>
	<path class="st5" d="M68.3,43.6H53.8c-1.4,0-2.5-1.1-2.5-2.5v0c0-1.4,1.1-2.5,2.5-2.5h2.1h12.4c1.4,0,2.5,1.1,2.5,2.5v0
		C70.8,42.5,69.7,43.6,68.3,43.6z"/>
	<line class="st5" x1="55.8" y1="43.6" x2="55.8" y2="38.7"/>
	<line class="st5" x1="60.3" y1="43.6" x2="60.3" y2="38.7"/>
	<line class="st5" x1="65.3" y1="43.6" x2="65.3" y2="38.7"/>
</g>
<g>
	<path class="st5" d="M17.1,41L4.8,48.8c-1.1,0.7-2.7,0.4-3.4-0.8l0,0c-0.7-1.1-0.4-2.7,0.8-3.4l1.8-1.1l10.5-6.6
		c1.1-0.7,2.7-0.4,3.4,0.8l0,0C18.6,38.8,18.2,40.3,17.1,41z"/>
	<line class="st5" x1="6.5" y1="47.7" x2="3.9" y2="43.6"/>
	<line class="st5" x1="10.3" y1="45.3" x2="7.7" y2="41.2"/>
	<line class="st5" x1="14.5" y1="42.7" x2="11.9" y2="38.5"/>
</g>
</svg>
