<?xml version="1.0" encoding="utf-8"?>
<!-- Generator: Adobe Illustrator 22.0.0, SVG Export Plug-In . SVG Version: 6.00 Build 0)  -->
<svg version="1.1" id="Layer_1" xmlns="http://www.w3.org/2000/svg" xmlns:xlink="http://www.w3.org/1999/xlink" x="0px" y="0px"
	 viewBox="0 0 129.8 115.8" style="enable-background:new 0 0 129.8 115.8;" xml:space="preserve">
<style type="text/css">
	.st0{fill:#FFFFFF;stroke:#5C6783;stroke-width:2;}
	.st1{fill:none;stroke:#5C6783;stroke-width:2;}
	.st2{fill:#87DEE8;}
	.st3{fill:#A08AC9;}
	.st4{fill:#D7F4F7;}
	.st5{fill:#FFFFFF;}
</style>
<g id="building_2_" transform="translate(446.000000, 69.000000)">
	<path id="Rectangle-13" class="st0" d="M-357.4,2.8v-49.3c0-4.6,3.7-8.2,8.2-8.2h0.2c4.6,0,8.2,3.7,8.2,8.2V1.7"/>
	<path id="Rectangle-13_1_" class="st1" d="M-382.5-28.5h0.3c4.6,0,8.2,3.7,8.2,8.2v15.1"/>
	<path id="Rectangle-13_2_" class="st2" d="M-418.4-9.7v-50.1c0-4.6,3.7-8.2,8.2-8.2h18.9c4.6,0,8.2,3.7,8.2,8.2v49.7"/>
	<path id="Rectangle-13_3_" class="st3" d="M-395.1-10.7c0-25.8,0-42,0-48.4c0-7.9-10.3-8.1-10.3-8.1s4.6,0,13.9,0
		c4.6,0,8.2,3.7,8.2,8.2l0.1,48.2C-394.1-10.7-398.1-10.7-395.1-10.7z"/>
	<path id="Rectangle-13_4_" class="st1" d="M-436.1,2.5v-36.6c0-4.6,3.7-8.2,8.2-8.2h13.7c4.6,0,8.2,3.7,8.2,8.2v19.9"/>
	<path id="Rectangle-13_5_" class="st1" d="M-418.4-9.7v-50.1c0-4.6,3.7-8.2,8.2-8.2h18.9c4.6,0,8.2,3.7,8.2,8.2v49.7"/>
	<path id="Oval-5" class="st2" d="M-381.9,45.8c8.4,0,38.5,0,55.1,0c4.2-0.5,6.8-1.8,9.5-2.9c0-1,0-3.5,0-9.4
		c0-17.8-14.5-32.3-32.3-32.3c-5.9,0-11.4,1.5-16.1,4.3"/>
	<path id="Oval-5_1_" class="st3" d="M-333.4,45.8c10.6,0,16.1-0.1,16.1-0.2c0-0.4,0-3.7,0-12c0-17.8-16.1-37-41.8-31.1
		C-339.1,4.4-330.5,18.9-333.4,45.8z"/>
	<path id="Oval-5_2_" class="st1" d="M-381.9,45.8c8.4,0,38.1,0,54.8,0c3,0,9.8-0.1,9.8-0.1c0-0.4,0-5.6,0-12.2
		c0-17.8-14.5-32.3-32.3-32.3c-5.9,0-11.4,1.5-16.1,4.3"/>
	<path id="Oval-5_3_" class="st0" d="M-357.3,45.8c0-10.3,0,7.6,0-16.7s-19.7-43.8-43.9-43.8C-425.4-14.6-445,5-445,29.2
		c0,8.8,0,10.5,0,16.7C-430.7,45.8-370.1,45.8-357.3,45.8z"/>
	<g id="generator_2_" transform="translate(24.000000, 92.000000)">
		<g id="Rectangle-7_2_">
			<g>
				<path id="path-14" class="st4" d="M-434.5-92.4h18.4l0,0c6.5,0,11.7,5.3,11.7,11.7v35.2h-41.8v-35.2l0,0
					C-446.2-87.2-441-92.4-434.5-92.4z"/>
			</g>
			<path class="st1" d="M-445.1-46.5h39.6v-34.1c0-5.9-4.8-10.6-10.6-10.6h-18.4c-5.9,0-10.6,4.8-10.6,10.6V-46.5z"/>
		</g>
		<g id="Rectangle-8_3_">
			<g>
				<path id="path-15" class="st5" d="M-447.9-82.1h45.1c2,0,3.5,1.5,3.5,3.5v1.8c0,2-1.5,3.5-3.5,3.5h-45.1c-2,0-3.5-1.5-3.5-3.5
					v-1.8C-451.4-80.6-449.8-82.1-447.9-82.1z"/>
			</g>
			<path class="st1" d="M-447-81h43.3c1.8,0,3.3,1.5,3.3,3.3l0,0c0,1.8-1.5,3.3-3.3,3.3H-447c-1.8,0-3.3-1.5-3.3-3.3l0,0
				C-450.3-79.6-448.8-81-447-81z"/>
		</g>
		<g id="Rectangle-8_4_">
			<g>
				<path id="path-16" class="st5" d="M-447.9-64.5h45.1c2,0,3.5,1.5,3.5,3.5v1.8c0,2-1.5,3.5-3.5,3.5h-45.1c-2,0-3.5-1.5-3.5-3.5
					V-61C-451.4-63-449.8-64.5-447.9-64.5z"/>
			</g>
			<path class="st1" d="M-447-63.4h43.3c1.8,0,3.3,1.5,3.3,3.3l0,0c0,1.8-1.5,3.3-3.3,3.3H-447c-1.8,0-3.3-1.5-3.3-3.3l0,0
				C-450.3-61.9-448.8-63.4-447-63.4z"/>
		</g>
	</g>
</g>
</svg>
