<svg
 xmlns="http://www.w3.org/2000/svg"
 xmlns:xlink="http://www.w3.org/1999/xlink"
 width="22px" height="18px">
<path fill-rule="evenodd"  fill="#000000;"
 d="M19.187,3.855 C19.733,3.855 20.197,4.042 20.579,4.418 C20.961,4.793 21.152,5.248 21.152,5.784 L21.152,16.071 C21.152,16.607 20.961,17.063 20.579,17.438 C20.197,17.813 19.733,18.000 19.187,18.000 L2.152,18.000 C1.606,18.000 1.142,17.813 0.760,17.438 C0.378,17.063 0.187,16.607 0.187,16.071 L0.187,5.784 C0.187,5.248 0.378,4.793 0.760,4.418 C1.142,4.042 1.606,3.855 2.152,3.855 L5.428,3.855 L5.428,1.926 C5.428,1.390 5.619,0.935 6.002,0.560 C6.384,0.185 6.848,-0.003 7.394,-0.003 L13.946,-0.003 C14.491,-0.003 14.955,0.185 15.338,0.560 C15.720,0.935 15.911,1.390 15.911,1.926 L15.911,3.855 L19.187,3.855 ZM2.152,16.071 L5.428,16.071 L5.428,5.784 L2.152,5.784 L2.152,16.071 ZM7.394,1.926 L7.394,3.855 L13.946,3.855 L13.946,1.926 L7.394,1.926 ZM7.394,16.071 L13.946,16.071 L13.946,5.784 L7.394,5.784 L7.394,16.071 ZM19.187,16.071 L19.187,5.784 L15.911,5.784 L15.911,16.071 L19.187,16.071 Z"/>
</svg>
