<svg
 xmlns="http://www.w3.org/2000/svg"
 xmlns:xlink="http://www.w3.org/1999/xlink"
 width="34px" height="23px">
<path fill-rule="evenodd"  fill="#000000;"
 d="M32.724,14.801 C32.188,15.345 31.513,15.633 30.771,15.633 L29.084,15.633 L29.084,17.006 C29.084,17.507 28.821,17.949 28.380,18.188 C28.180,18.297 27.965,18.352 27.750,18.352 C27.496,18.352 27.243,18.275 27.019,18.123 L23.753,15.633 L23.101,15.633 C22.996,16.434 22.655,17.152 22.056,17.759 C21.331,18.495 20.456,18.869 19.454,18.869 L14.694,18.869 L9.671,22.703 C9.383,22.899 9.083,22.995 8.788,22.995 C8.545,22.995 8.306,22.930 8.078,22.805 C7.575,22.532 7.285,22.045 7.285,21.473 L7.285,18.869 L4.213,18.869 C3.212,18.869 2.336,18.496 1.611,17.759 C0.886,17.023 0.518,16.134 0.518,15.118 L0.518,3.752 C0.518,2.734 0.886,1.846 1.611,1.110 C2.336,0.374 3.212,0.001 4.213,0.001 L19.454,0.001 C20.456,0.001 21.331,0.374 22.057,1.110 C22.559,1.620 22.878,2.208 23.034,2.857 L30.771,2.857 C31.513,2.857 32.188,3.145 32.724,3.689 C33.260,4.233 33.543,4.918 33.543,5.671 L33.543,12.819 C33.543,13.572 33.260,14.257 32.724,14.801 ZM20.659,2.529 C20.309,2.172 19.925,2.006 19.454,2.006 L4.213,2.006 C3.742,2.006 3.359,2.172 3.008,2.528 C2.657,2.884 2.494,3.273 2.494,3.752 L2.494,15.118 C2.494,15.596 2.657,15.985 3.008,16.341 C3.359,16.697 3.742,16.863 4.213,16.863 L8.273,16.863 C8.819,16.863 9.261,17.312 9.261,17.866 L9.261,20.508 L13.770,17.064 C13.941,16.934 14.150,16.863 14.364,16.863 L19.454,16.863 C19.925,16.863 20.309,16.697 20.659,16.341 C20.874,16.122 21.011,15.889 21.091,15.633 C21.141,15.471 21.173,15.303 21.173,15.118 L21.173,13.627 L21.173,4.863 L21.173,3.752 C21.173,3.415 21.087,3.125 20.918,2.857 C20.846,2.744 20.763,2.634 20.659,2.529 ZM31.567,5.671 C31.567,5.447 31.495,5.278 31.327,5.107 C31.158,4.936 30.992,4.863 30.771,4.863 L23.149,4.863 L23.149,13.627 L24.083,13.627 C24.297,13.627 24.506,13.697 24.677,13.828 L27.108,15.684 L27.108,14.630 C27.108,14.076 27.551,13.627 28.096,13.627 L30.771,13.627 C30.992,13.627 31.158,13.554 31.327,13.383 C31.495,13.212 31.567,13.043 31.567,12.819 L31.567,5.671 Z"/>
</svg>
