<svg
 xmlns="http://www.w3.org/2000/svg"
 xmlns:xlink="http://www.w3.org/1999/xlink"
 width="17px" height="20px">
<path fill-rule="evenodd"  fill="#000000;"
 d="M14.919,7.186 C15.896,8.592 16.384,10.155 16.384,11.874 C16.384,13.359 16.024,14.720 15.305,15.957 C14.585,17.194 13.616,18.177 12.395,18.906 C11.175,19.636 9.833,20.000 8.369,20.000 C6.904,20.000 5.562,19.636 4.342,18.906 C3.122,18.177 2.152,17.194 1.433,15.957 C0.713,14.720 0.354,13.359 0.354,11.874 C0.354,10.519 0.668,9.250 1.298,8.065 C1.927,6.880 2.781,5.909 3.860,5.154 C4.939,4.399 6.134,3.943 7.444,3.787 L7.444,1.873 L6.365,1.873 C6.236,1.873 6.127,1.827 6.037,1.736 C5.947,1.645 5.902,1.534 5.902,1.404 L5.902,0.467 C5.902,0.336 5.947,0.226 6.037,0.134 C6.127,0.043 6.236,-0.002 6.365,-0.002 L10.372,-0.002 C10.501,-0.002 10.610,0.043 10.700,0.134 C10.790,0.226 10.835,0.336 10.835,0.467 L10.835,1.404 C10.835,1.534 10.790,1.645 10.700,1.736 C10.610,1.827 10.501,1.873 10.372,1.873 L9.293,1.873 L9.293,3.787 C10.963,3.995 12.428,4.659 13.686,5.779 L14.495,4.959 C14.572,4.881 14.675,4.842 14.804,4.842 C14.932,4.842 15.048,4.881 15.151,4.959 L15.806,5.623 C15.883,5.727 15.921,5.844 15.921,5.975 C15.921,6.105 15.883,6.209 15.806,6.287 L14.919,7.186 ZM8.369,18.125 C9.473,18.125 10.501,17.845 11.451,17.285 C12.402,16.725 13.153,15.963 13.705,15.000 C14.258,14.036 14.534,12.994 14.534,11.874 C14.534,10.754 14.258,9.712 13.705,8.748 C13.153,7.785 12.402,7.023 11.451,6.463 C10.501,5.903 9.473,5.623 8.369,5.623 C7.264,5.623 6.236,5.903 5.286,6.463 C4.335,7.023 3.584,7.785 3.032,8.748 C2.479,9.712 2.203,10.754 2.203,11.874 C2.203,12.994 2.479,14.036 3.032,15.000 C3.584,15.963 4.335,16.725 5.286,17.285 C6.236,17.845 7.264,18.125 8.369,18.125 ZM8.831,13.749 C8.959,13.749 9.069,13.704 9.158,13.613 C9.248,13.521 9.293,13.411 9.293,13.280 L9.293,7.967 C9.293,7.837 9.248,7.726 9.158,7.635 C9.069,7.544 8.959,7.498 8.831,7.498 L7.906,7.498 C7.778,7.498 7.668,7.544 7.579,7.635 C7.489,7.726 7.444,7.837 7.444,7.967 L7.444,13.280 C7.444,13.411 7.489,13.521 7.579,13.613 C7.668,13.704 7.778,13.749 7.906,13.749 L8.831,13.749 Z"/>
</svg>
