<?xml version="1.0" encoding="utf-8"?>
<!-- Generator: Adobe Illustrator 22.0.0, SVG Export Plug-In . SVG Version: 6.00 Build 0)  -->
<svg version="1.1" id="Layer_1" xmlns="http://www.w3.org/2000/svg" xmlns:xlink="http://www.w3.org/1999/xlink" x="0px" y="0px"
	 viewBox="0 0 44.1 15.3" style="enable-background:new 0 0 44.1 15.3;" xml:space="preserve">
<style type="text/css">
	.st0{fill:#FFDB03;stroke:#5C6783;stroke-width:1.5;stroke-linecap:round;stroke-linejoin:round;}
</style>
<g>
	<path class="st0" d="M38.9,14.5H22c-1.6,0-2.8-1.3-2.8-2.8v0c0-1.6,1.3-2.8,2.8-2.8h2.5h14.4c1.6,0,2.8,1.3,2.8,2.8v0
		C41.7,13.3,40.4,14.5,38.9,14.5z"/>
	<line class="st0" x1="24.4" y1="14.5" x2="24.4" y2="8.9"/>
	<line class="st0" x1="29.6" y1="14.5" x2="29.6" y2="8.9"/>
	<line class="st0" x1="35.3" y1="14.5" x2="35.3" y2="8.9"/>
</g>
<g>
	<path class="st0" d="M40.5,8.9H23.7c-1.6,0-2.8-1.3-2.8-2.8v0c0-1.6,1.3-2.8,2.8-2.8h2.5h14.4c1.6,0,2.8,1.3,2.8,2.8v0
		C43.3,7.6,42.1,8.9,40.5,8.9z"/>
	<line class="st0" x1="26" y1="8.9" x2="26" y2="3.2"/>
	<line class="st0" x1="31.3" y1="8.9" x2="31.3" y2="3.2"/>
	<line class="st0" x1="37" y1="8.9" x2="37" y2="3.2"/>
</g>
<g>
	<path class="st0" d="M19.7,6.1L5,14.2c-1.4,0.8-3.1,0.3-3.9-1.1l0,0C0.3,11.7,0.8,10,2.2,9.2L4.4,8L17,1.1c1.4-0.8,3.1-0.3,3.9,1.1
		l0,0C21.6,3.6,21.1,5.3,19.7,6.1z"/>
	<line class="st0" x1="7" y1="13" x2="4.3" y2="8.1"/>
	<line class="st0" x1="11.6" y1="10.5" x2="8.9" y2="5.5"/>
	<line class="st0" x1="16.6" y1="7.8" x2="13.9" y2="2.8"/>
</g>
</svg>
