<?xml version="1.0" encoding="utf-8"?>
<!-- Generator: Adobe Illustrator 22.0.0, SVG Export Plug-In . SVG Version: 6.00 Build 0)  -->
<svg version="1.1" id="Layer_1" xmlns="http://www.w3.org/2000/svg" xmlns:xlink="http://www.w3.org/1999/xlink" x="0px" y="0px"
	 viewBox="0 0 41.6 13.8" style="enable-background:new 0 0 41.6 13.8;" xml:space="preserve">
<style type="text/css">
	.st0{fill:#FFDB03;stroke:#5C6783;stroke-width:2;stroke-linecap:round;stroke-linejoin:round;}
</style>
<g>
	<path class="st0" d="M37.8,12.8H20.9c-1.6,0-2.8-1.3-2.8-2.8v0c0-1.6,1.3-2.8,2.8-2.8h2.5h14.4c1.6,0,2.8,1.3,2.8,2.8v0
		C40.6,11.5,39.3,12.8,37.8,12.8z"/>
	<line class="st0" x1="23.3" y1="12.8" x2="23.3" y2="7.1"/>
	<line class="st0" x1="28.5" y1="12.8" x2="28.5" y2="7.1"/>
	<line class="st0" x1="34.2" y1="12.8" x2="34.2" y2="7.1"/>
</g>
<g>
	<path class="st0" d="M20.5,6.5L4.9,12.6c-1.5,0.6-3.1-0.2-3.7-1.6l0,0C0.6,9.5,1.4,7.8,2.8,7.3l2.3-0.9l13.4-5.2
		c1.5-0.6,3.1,0.2,3.7,1.6l0,0C22.7,4.3,22,5.9,20.5,6.5z"/>
	<line class="st0" x1="7.1" y1="11.7" x2="5" y2="6.4"/>
	<line class="st0" x1="12" y1="9.8" x2="9.9" y2="4.5"/>
	<line class="st0" x1="17.3" y1="7.8" x2="15.2" y2="2.5"/>
</g>
</svg>
