<?xml version="1.0" encoding="utf-8"?>
<!-- Generator: Adobe Illustrator 22.0.0, SVG Export Plug-In . SVG Version: 6.00 Build 0)  -->
<svg version="1.1" id="Layer_1" xmlns="http://www.w3.org/2000/svg" xmlns:xlink="http://www.w3.org/1999/xlink" x="0px" y="0px"
	 viewBox="0 0 29.4 19.5" style="enable-background:new 0 0 29.4 19.5;" xml:space="preserve">
<style type="text/css">
	.st0{fill:#FFDB03;stroke:#5C6783;stroke-width:2;stroke-linecap:round;stroke-linejoin:round;}
</style>
<g>
	<g>
		<path class="st0" d="M23.9,18.5H7.1c-1.6,0-2.8-1.3-2.8-2.8v0c0-1.6,1.3-2.8,2.8-2.8h2.5h14.4c1.6,0,2.8,1.3,2.8,2.8v0
			C26.7,17.2,25.5,18.5,23.9,18.5z"/>
		<line class="st0" x1="9.4" y1="18.5" x2="9.4" y2="12.8"/>
		<line class="st0" x1="14.7" y1="18.5" x2="14.7" y2="12.8"/>
		<line class="st0" x1="20.4" y1="18.5" x2="20.4" y2="12.8"/>
	</g>
	<g>
		<path class="st0" d="M20.7,12.4H3.8C2.3,12.4,1,11.1,1,9.5v0c0-1.6,1.3-2.8,2.8-2.8h2.5h14.4c1.6,0,2.8,1.3,2.8,2.8v0
			C23.5,11.1,22.2,12.4,20.7,12.4z"/>
		<line class="st0" x1="6.2" y1="12.4" x2="6.2" y2="6.7"/>
		<line class="st0" x1="11.4" y1="12.4" x2="11.4" y2="6.7"/>
		<line class="st0" x1="17.1" y1="12.4" x2="17.1" y2="6.7"/>
	</g>
	<g>
		<path class="st0" d="M25.5,6.7H8.7c-1.6,0-2.8-1.3-2.8-2.8v0C5.9,2.3,7.1,1,8.7,1h2.5h14.4c1.6,0,2.8,1.3,2.8,2.8v0
			C28.4,5.4,27.1,6.7,25.5,6.7z"/>
		<line class="st0" x1="11.1" y1="6.7" x2="11.1" y2="1"/>
		<line class="st0" x1="16.3" y1="6.7" x2="16.3" y2="1"/>
		<line class="st0" x1="22" y1="6.7" x2="22" y2="1"/>
	</g>
</g>
</svg>
