<?xml version="1.0" encoding="utf-8"?>
<!-- Generator: Adobe Illustrator 22.0.0, SVG Export Plug-In . SVG Version: 6.00 Build 0)  -->
<svg version="1.1" id="Layer_1" xmlns="http://www.w3.org/2000/svg" xmlns:xlink="http://www.w3.org/1999/xlink" x="0px" y="0px"
	 viewBox="0 0 40.1 20.6" style="enable-background:new 0 0 40.1 20.6;" xml:space="preserve">
<style type="text/css">
	.st0{fill:#FFDB03;stroke:#5C6783;stroke-width:1.5;stroke-linecap:round;stroke-linejoin:round;}
</style>
<g>
	<path class="st0" d="M20.8,18.5H4c-1.6,0-2.8-1.3-2.8-2.8v0c0-1.6,1.3-2.8,2.8-2.8h2.5h14.4c1.6,0,2.8,1.3,2.8,2.8v0
		C23.6,17.2,22.4,18.5,20.8,18.5z"/>
	<line class="st0" x1="6.3" y1="18.5" x2="6.3" y2="12.8"/>
	<line class="st0" x1="11.6" y1="18.5" x2="11.6" y2="12.8"/>
	<line class="st0" x1="17.3" y1="18.5" x2="17.3" y2="12.8"/>
</g>
<g>
	<path class="st0" d="M22.4,12.8H5.6c-1.6,0-2.8-1.3-2.8-2.8v0c0-1.6,1.3-2.8,2.8-2.8h2.5h14.4c1.6,0,2.8,1.3,2.8,2.8v0
		C25.3,11.5,24,12.8,22.4,12.8z"/>
	<line class="st0" x1="8" y1="12.8" x2="8" y2="7.1"/>
	<line class="st0" x1="13.2" y1="12.8" x2="13.2" y2="7.1"/>
	<line class="st0" x1="18.9" y1="12.8" x2="18.9" y2="7.1"/>
</g>
<g>
	<path class="st0" d="M20.4,7.1H3.6C2,7.1,0.8,5.9,0.8,4.3v0c0-1.6,1.3-2.8,2.8-2.8H6h14.4c1.6,0,2.8,1.3,2.8,2.8v0
		C23.2,5.9,22,7.1,20.4,7.1z"/>
	<line class="st0" x1="5.9" y1="7.1" x2="5.9" y2="1.5"/>
	<line class="st0" x1="11.2" y1="7.1" x2="11.2" y2="1.5"/>
	<line class="st0" x1="16.9" y1="7.1" x2="16.9" y2="1.5"/>
</g>
<g>
	<path class="st0" d="M24.2,5.3l10.1,13.5c0.9,1.3,2.7,1.5,4,0.6l0,0c1.3-0.9,1.5-2.7,0.6-4l-1.5-2L28.7,1.9c-0.9-1.3-2.7-1.5-4-0.6
		l0,0C23.5,2.3,23.2,4,24.2,5.3z"/>
	<line class="st0" x1="32.9" y1="16.9" x2="37.4" y2="13.5"/>
	<line class="st0" x1="29.7" y1="12.7" x2="34.3" y2="9.3"/>
	<line class="st0" x1="26.3" y1="8.1" x2="30.8" y2="4.7"/>
</g>
</svg>
