<?xml version="1.0" encoding="utf-8"?>
<!-- Generator: Adobe Illustrator 22.0.0, SVG Export Plug-In . SVG Version: 6.00 Build 0)  -->
<svg version="1.1" id="Layer_1" xmlns="http://www.w3.org/2000/svg" xmlns:xlink="http://www.w3.org/1999/xlink" x="0px" y="0px"
	 viewBox="0 0 54 51" style="enable-background:new 0 0 54 51;" xml:space="preserve">
<style type="text/css">
	.st0{fill:#87DEE8;stroke:#5C6783;stroke-width:2;}
	.st1{fill:#A08AC9;stroke:#5C6783;stroke-width:2;}
</style>
<g id="Page-1">
	<g id="Landing" transform="translate(-1089.000000, -726.000000)">
		<g id="Group-7" transform="translate(183.000000, 715.000000)">
			<g id="contributors" transform="translate(907.000000, 0.000000)">
				<g id="contributions-icn" transform="translate(0.000000, 12.000000)">
					<path id="Fill-679" class="st0" d="M48,39.1l-8.6-4.3c-1.1-0.6-1.8-1.7-1.8-3v-3.4c0.2-0.3,0.5-0.6,0.8-1.1
						c1.2-1.7,2.1-3.5,2.7-5.4c1.1-0.3,1.9-1.4,1.9-2.6v-3.6c0-0.8-0.4-1.5-0.9-2V8.5c0,0,1.1-8.2-9.9-8.2c-10.9,0-9.9,8.2-9.9,8.2
						v5.2c-0.5,0.5-0.9,1.2-0.9,2v3.6c0,1,0.5,1.8,1.2,2.3c0.9,3.9,3.2,6.8,3.2,6.8v3.3c0,1.2-0.7,2.3-1.7,2.9l-8,4.4
						c-2.3,1.3-3.7,3.7-3.7,6.4v2.9H52v-2.8C52,42.9,50.5,40.4,48,39.1"/>
					<path id="Fill-680" class="st1" d="M21.6,36.1c0,0,2.7-1.5,2.7-1.5c1-0.6,1.7-1.7,1.7-2.9v-3.3c0,0-1-1.2-1.9-3
						c-0.1-0.2-0.2-0.5-0.4-0.8c0,0,0-0.1,0-0.1c-0.1-0.3-0.2-0.6-0.3-0.9c-0.1-0.3-0.2-0.6-0.3-0.9c0-0.1,0-0.2-0.1-0.2
						c-0.1-0.3-0.2-0.6-0.2-0.9c-0.7-0.5-1.2-1.3-1.2-2.3v-3.6c0-0.8,0.4-1.5,0.9-2V8.6c-1.3-1-3.2-1.9-6.3-1.9c-8.6,0-9,7.3-9,7.3
						v4.5c-0.5,0.4-0.9,1-0.9,1.7v3.1c0,0.8,0.4,1.6,1.1,2c0.8,3.4,3.4,5.9,3.4,5.9V34c0,1-0.6,2-1.5,2.5l-6,3.8
						c-2,1.1-3.2,3.2-3.2,5.5v2.5h12.6v-2.9c0-2.7,1.4-5.1,3.7-6.4L21.6,36.1z"/>
				</g>
			</g>
		</g>
	</g>
</g>
</svg>
