<?xml version="1.0" encoding="utf-8"?>
<!-- Generator: Adobe Illustrator 22.0.0, SVG Export Plug-In . SVG Version: 6.00 Build 0)  -->
<svg version="1.1" id="Layer_1" xmlns="http://www.w3.org/2000/svg" xmlns:xlink="http://www.w3.org/1999/xlink" x="0px" y="0px"
	 viewBox="0 0 54 54" style="enable-background:new 0 0 54 54;" xml:space="preserve">
<style type="text/css">
	.st0{fill:#A08AC9;stroke:#5C6783;stroke-width:1.8;}
	.st1{fill:#F0E4B0;}
	.st2{fill:#5C6783;}
	.st3{fill:none;stroke:#5C6783;stroke-width:1.8;stroke-linecap:round;}
	.st4{fill:#E6E7E8;}
	.st5{fill:#D75A4A;}
	.st6{fill:#CECECE;}
	.st7{fill:#EEAA56;}
	.st8{fill:#5E5E5E;}
	.st9{fill:#F29C1F;}
	.st10{fill:#83D7E1;stroke:#5C6783;stroke-width:1.8;}
	.st11{fill:none;stroke:#5C6783;stroke-width:1.8;}
</style>
<g id="Page-1">
	<g id="Landing" transform="translate(-182.000000, -725.000000)">
		<g id="Group-7" transform="translate(183.000000, 715.000000)">
			<g id="invested">
				<g id="invested-icn" transform="translate(0.000000, 11.000000)">
					<polygon id="Stroke-3652" class="st0" points="0,41.3 41.2,41.3 41.2,13.5 0,13.5 					"/>
					<polygon id="Fill-1142" class="st1" points="48.4,41.3 52,41.3 52,13.5 48.4,13.5 					"/>
					<path id="Fill-1143" class="st2" d="M34.1,24.3h-2.7c-0.5,0-0.9-0.4-0.9-0.9s0.4-0.9,0.9-0.9h2.7c0.5,0,0.9,0.4,0.9,0.9
						S34.6,24.3,34.1,24.3"/>
					<path id="Fill-1144" class="st2" d="M20.6,20.7h-2.7c-0.5,0-0.9-0.4-0.9-0.9c0-0.5,0.4-0.9,0.9-0.9h2.7c0.5,0,0.9,0.4,0.9,0.9
						C21.5,20.3,21.1,20.7,20.6,20.7"/>
					<path id="Fill-1145" class="st2" d="M34.1,20.7h-6.3c-0.5,0-0.9-0.4-0.9-0.9c0-0.5,0.4-0.9,0.9-0.9h6.3c0.5,0,0.9,0.4,0.9,0.9
						C35,20.3,34.6,20.7,34.1,20.7"/>
					<path id="Fill-1146" class="st2" d="M24.2,20.7c-0.2,0-0.5-0.1-0.6-0.3c-0.2-0.2-0.3-0.4-0.3-0.6c0-0.2,0.1-0.5,0.3-0.6
						c0.3-0.3,0.9-0.3,1.3,0c0.2,0.2,0.3,0.4,0.3,0.6c0,0.2-0.1,0.5-0.3,0.6C24.7,20.6,24.4,20.7,24.2,20.7"/>
					<path id="Fill-1147" class="st2" d="M27.8,24.3h-6.3c-0.5,0-0.9-0.4-0.9-0.9s0.4-0.9,0.9-0.9h6.3c0.5,0,0.9,0.4,0.9,0.9
						S28.3,24.3,27.8,24.3"/>
					<path id="Fill-1148" class="st2" d="M17.9,24.3c-0.2,0-0.5-0.1-0.6-0.3c-0.2-0.2-0.3-0.4-0.3-0.6c0-0.2,0.1-0.5,0.3-0.6
						c0.3-0.3,0.9-0.3,1.3,0c0.2,0.2,0.3,0.4,0.3,0.6c0,0.2-0.1,0.5-0.3,0.6C18.4,24.2,18.2,24.3,17.9,24.3"/>
					<path id="Stroke-1149" class="st3" d="M4.5,29.8c0,2,1.6,3.6,3.6,3.6c1.1,0,2.1-0.5,2.7-1.3c0.8-1,0.6-2.5-0.4-3.3l-4.7-3.7
						c-1-0.8-1.2-2.3-0.4-3.3C6,21.2,7,20.7,8.1,20.7c2,0,3.6,1.6,3.6,3.6"/>
					<polyline id="Stroke-1150" class="st3" points="8.1,18.9 8.1,30.5 8.1,35 					"/>
					<path id="Fill-1151" class="st2" d="M20.8,29.1c-2,1-2.6,3-2.9,5c-0.4-0.3-0.7-0.6-1.1-0.9c-0.9-0.7-2.2,0.5-1.3,1.3
						c0.8,0.7,1.7,1.4,2.5,2.1c0.6,0.5,1.5,0.2,1.5-0.6c0.1-1.9,0.2-4.3,2.1-5.3C22.7,30.1,21.8,28.6,20.8,29.1"/>
					<path id="Fill-1152" class="st2" d="M29.1,33.7c-0.5-0.8-1.5-1.2-2.4-1c-1.2,0.3-2.7,1.8-3.5,0.1c-0.5-1-2.1-0.1-1.5,0.9
						c0.5,0.9,1.3,1.6,2.4,1.7c0.5,0.1,1,0,1.5-0.2c0.4-0.1,1.7-1.2,2-0.6C28.1,35.6,29.7,34.7,29.1,33.7"/>
					<polygon id="Fill-2468" class="st4" points="41.2,9.9 44.8,9.9 44.8,6.3 41.2,6.3 					"/>
					<path id="Fill-2470" class="st5" d="M46.6,0L46.6,0c0.2,0,0.5,0.1,0.7,0.1C47.1,0.1,46.9,0,46.6,0"/>
					<polygon id="Fill-2472" class="st6" points="44.8,9.9 48.4,9.9 48.4,6.3 44.8,6.3 					"/>
					<path id="Fill-2473" class="st5" d="M48.4,1.8L48.4,1.8c0-0.6-0.3-1.2-0.8-1.5C48.1,0.6,48.4,1.2,48.4,1.8"/>
					<polygon id="Fill-2475" class="st7" points="48.4,44 41.2,44 44.8,50.3 					"/>
					<path id="Fill-2476" class="st8" d="M43.9,52.1c0,0.5,0.4,0.9,0.9,0.9s0.9-0.4,0.9-0.9v-3.6h-1.8V52.1z"/>
					<polygon id="Fill-2477" class="st9" points="41.2,44 49.3,44 49.3,6.1 41.2,6.1 					"/>
					<path id="Stroke-3648" class="st10" d="M44.8,50.3L41.2,44V1.8C41.2,0.8,42,0,43,0h3.6c1,0,1.8,0.8,1.8,1.8V44L44.8,50.3z"/>
					<polygon id="Stroke-3649" class="st11" points="41.2,9.9 48.4,9.9 48.4,6.3 41.2,6.3 					"/>
					<path id="Stroke-3650" class="st11" d="M41.2,44h7.2"/>
					<path id="Stroke-3651" class="st3" d="M44.8,50.3v1.8"/>
					<polygon id="Stroke-3653" class="st0" points="48.4,41.3 52,41.3 52,13.5 48.4,13.5 					"/>
				</g>
			</g>
		</g>
	</g>
</g>
</svg>
