<?xml version="1.0" encoding="utf-8"?>
<!-- Generator: Adobe Illustrator 22.0.0, SVG Export Plug-In . SVG Version: 6.00 Build 0)  -->
<svg version="1.1" id="Layer_1" xmlns="http://www.w3.org/2000/svg" xmlns:xlink="http://www.w3.org/1999/xlink" x="0px" y="0px"
	 viewBox="0 0 30.8 30.8" style="enable-background:new 0 0 30.8 30.8;" xml:space="preserve">
<style type="text/css">
	.st0{fill:#FFDA06;stroke:#5C6783;stroke-width:1.5;stroke-linecap:round;stroke-linejoin:round;}
	.st1{fill:#9E8BC1;stroke:#5C6783;stroke-width:1.5;stroke-linecap:round;stroke-linejoin:round;}
	.st2{fill:#FFFFFF;}
</style>
<circle class="st0" cx="15.4" cy="15.4" r="14.6"/>
<circle class="st1" cx="15.4" cy="15.4" r="11.2"/>
<path class="st2" d="M20,15.4c-0.5-0.4-1.2-0.5-1.2-0.5s0.6-0.3,0.8-0.7c0.2-0.3,0.4-0.9,0.4-1.1c0-0.3,0.1-1.4-0.8-2.1
	c-0.7-0.5-1.5-0.7-2.5-0.8V7.9h-1.4v2.3h-1.1V7.9h-1.4v2.3H10v1.5h0.8c0.2,0,0.6,0,0.8,0.2c0.2,0.2,0.2,0.3,0.2,0.7l0,5.9
	c0,0.1,0,0.3-0.1,0.4c-0.1,0.1-0.2,0.1-0.5,0.1h-0.8L10,20.6h2.8v2.3h1.4v-2.3h1.1v2.3h1.4v-2.3c0.4,0,0.7,0,0.9-0.1
	c0.4-0.1,1.3-0.2,2.2-0.8c0.9-0.6,1-1.5,1.1-2.5C20.8,16.4,20.5,15.7,20,15.4L20,15.4z M14.2,11.8c0,0,0.5,0,0.9,0
	c0.4,0,0.8,0,1.4,0.2c0.6,0.2,0.9,0.6,0.9,1.1c0,0.5-0.2,0.9-0.6,1.1c-0.4,0.2-0.9,0.3-1.5,0.4c-0.5,0-1.2,0-1.2,0L14.2,11.8z
	 M17.4,18.5c-0.3,0.2-1,0.3-1.6,0.4c-0.6,0-1.6,0-1.6,0v-3c0,0,0.9,0,1.6,0c0.7,0,1.3,0.2,1.6,0.4c0.3,0.1,0.7,0.4,0.7,1.1
	C18.1,18.1,17.7,18.4,17.4,18.5z"/>
</svg>
