<?xml version="1.0" encoding="utf-8"?>
<!-- Generator: Adobe Illustrator 22.0.0, SVG Export Plug-In . SVG Version: 6.00 Build 0)  -->
<svg version="1.1" id="Layer_1" xmlns="http://www.w3.org/2000/svg" xmlns:xlink="http://www.w3.org/1999/xlink" x="0px" y="0px"
	 viewBox="0 0 30.8 30.8" style="enable-background:new 0 0 30.8 30.8;" xml:space="preserve">
<style type="text/css">
	.st0{fill:#FFDA06;stroke:#5C6783;stroke-width:1.5;stroke-linecap:round;stroke-linejoin:round;}
	.st1{fill:#9E8BC1;stroke:#5C6783;stroke-width:1.5;stroke-linecap:round;stroke-linejoin:round;}
	.st2{fill:#FFFFFF;}
</style>
<circle class="st0" cx="15.4" cy="15.4" r="14.6"/>
<circle class="st1" cx="15.4" cy="15.4" r="11.2"/>
<path class="st2" d="M18.7,18.6c-0.1-0.6-0.5-1.2-0.5-1.2s0.7,0.2,1.1,0.1c0.4-0.1,0.9-0.4,1.1-0.5c0.2-0.2,1-1,0.9-2
	c-0.1-0.8-0.5-1.5-1.2-2.3l1.6-1.6l-1-1L19,11.6l-0.8-0.8l1.6-1.6l-1-1l-1.6,1.6l-2-2l-1,1l0.6,0.6c0.2,0.2,0.4,0.5,0.4,0.7
	c0,0.3-0.1,0.3-0.3,0.6l-4.1,4.1c-0.1,0.1-0.2,0.2-0.4,0.2c-0.2,0-0.3-0.1-0.5-0.3l-0.6-0.6l-1.4,1l2,2l-1.6,1.6l1,1l1.6-1.6
	l0.8,0.8L10,20.6l1,1l1.6-1.6c0.3,0.2,0.5,0.5,0.7,0.6c0.3,0.2,1,0.8,2.1,1c1,0.2,1.8-0.3,2.5-1C18.6,19.9,18.8,19.2,18.7,18.6
	L18.7,18.6z M17.1,12c0,0,0.3,0.3,0.7,0.6c0.3,0.3,0.6,0.6,0.9,1.1c0.3,0.5,0.2,1.1-0.1,1.5c-0.4,0.4-0.8,0.5-1.2,0.3
	c-0.4-0.1-0.9-0.4-1.3-0.8c-0.4-0.4-0.8-0.8-0.8-0.8L17.1,12z M14.6,19c-0.4-0.1-0.9-0.4-1.4-0.9C12.7,17.7,12,17,12,17l2.1-2.1
	c0,0,0.7,0.6,1.1,1.1c0.5,0.5,0.8,1.1,0.8,1.4c0.1,0.3,0.2,0.8-0.3,1.3C15.4,19.2,14.9,19.1,14.6,19z"/>
</svg>
