<?xml version="1.0" encoding="utf-8"?>
<!-- Generator: Adobe Illustrator 22.0.0, SVG Export Plug-In . SVG Version: 6.00 Build 0)  -->
<svg version="1.1" id="Layer_1" xmlns="http://www.w3.org/2000/svg" xmlns:xlink="http://www.w3.org/1999/xlink" x="0px" y="0px"
	 viewBox="0 0 58.3 44.3" style="enable-background:new 0 0 58.3 44.3;" xml:space="preserve">
<style type="text/css">
	.st0{fill:#A08AC9;stroke:#5C6783;stroke-width:2;stroke-linecap:round;stroke-linejoin:round;}
	.st1{fill:#FFDA06;stroke:#5C6783;stroke-width:2;stroke-linecap:round;stroke-linejoin:round;}
	.st2{fill:none;stroke:#5C6783;stroke-width:2;stroke-linecap:round;stroke-linejoin:round;}
</style>
<path class="st0" d="M21.9,14.8H7.8C4.1,14.8,1,11.7,1,8V7.8C1,4.1,4.1,1,7.8,1h14.1c3.8,0,6.8,3.1,6.8,6.8V8
	C28.7,11.7,25.6,14.8,21.9,14.8z"/>
<path class="st1" d="M50.4,43.3H36.4c-3.8,0-6.8-3.1-6.8-6.8v-0.1c0-3.8,3.1-6.8,6.8-6.8h14.1c3.8,0,6.8,3.1,6.8,6.8v0.1
	C57.3,40.3,54.2,43.3,50.4,43.3z"/>
<path class="st2" d="M23.4,35.8c-0.9-0.4-1.7-0.8-2.5-1.4c-0.8-0.5-1.5-1.2-2.2-1.8s-1.3-1.4-1.8-2.2c-0.5-0.8-1-1.6-1.4-2.5
	C15,26.9,14.8,26,14.6,25s-0.3-2-0.3-3"/>
<path class="st2" d="M35.1,8.2C36,8.6,36.8,9,37.6,9.6c0.8,0.5,1.5,1.2,2.2,1.8c0.7,0.7,1.3,1.4,1.8,2.2s1,1.6,1.4,2.5
	c0.4,0.9,0.7,1.8,0.9,2.8c0.2,1,0.3,2,0.3,3"/>
</svg>
