<?xml version="1.0" encoding="utf-8"?>
<!-- Generator: Adobe Illustrator 22.0.0, SVG Export Plug-In . SVG Version: 6.00 Build 0)  -->
<svg version="1.1" id="Layer_1" xmlns="http://www.w3.org/2000/svg" xmlns:xlink="http://www.w3.org/1999/xlink" x="0px" y="0px"
	 viewBox="0 0 49.2 44.6" style="enable-background:new 0 0 49.2 44.6;" xml:space="preserve">
<style type="text/css">
	.st0{fill:#A08AC9;stroke:#5C6783;stroke-width:2;stroke-linecap:round;stroke-linejoin:round;}
	.st1{fill:#87DEE8;stroke:#5C6783;stroke-width:2;}
	.st2{fill:#FFDA06;stroke:#5C6783;stroke-width:2;stroke-linecap:round;stroke-linejoin:round;}
	.st3{fill:none;stroke:#5C6783;stroke-width:2;stroke-linecap:round;stroke-linejoin:round;}
</style>
<circle class="st0" cx="17.8" cy="17.8" r="13.6"/>
<circle class="st1" cx="17.8" cy="17.8" r="9.2"/>
<circle class="st2" cx="17.8" cy="17.8" r="2.5"/>
<line class="st3" x1="17.8" y1="1" x2="17.8" y2="4.3"/>
<line class="st3" x1="31.5" y1="17.8" x2="34.7" y2="17.8"/>
<line class="st3" x1="1" y1="17.8" x2="4.1" y2="17.8"/>
<line class="st3" x1="17.8" y1="31.9" x2="17.8" y2="34.7"/>
<line class="st3" x1="27.5" y1="27.5" x2="29.5" y2="29.5"/>
<line class="st3" x1="27.4" y1="8.2" x2="29.5" y2="6.2"/>
<line class="st3" x1="6.2" y1="29.5" x2="8.1" y2="27.6"/>
<line class="st3" x1="6.2" y1="6.2" x2="8.2" y2="8.2"/>
<circle class="st0" cx="38.2" cy="33.6" r="8.1"/>
<circle class="st2" cx="38.2" cy="33.6" r="3.7"/>
<line class="st3" x1="38.2" y1="23.6" x2="38.2" y2="25.5"/>
<line class="st3" x1="46.3" y1="33.6" x2="48.2" y2="33.6"/>
<line class="st3" x1="28.2" y1="33.6" x2="30" y2="33.6"/>
<line class="st3" x1="38.2" y1="42" x2="38.2" y2="43.6"/>
<line class="st3" x1="43.9" y1="39.4" x2="45.1" y2="40.6"/>
<line class="st3" x1="43.9" y1="27.9" x2="45.1" y2="26.7"/>
<line class="st3" x1="31.2" y1="40.6" x2="32.4" y2="39.4"/>
<line class="st3" x1="31.2" y1="26.7" x2="32.5" y2="27.9"/>
</svg>
