<?xml version="1.0" encoding="utf-8"?>
<!-- Generator: Adobe Illustrator 22.0.0, SVG Export Plug-In . SVG Version: 6.00 Build 0)  -->
<svg version="1.1" id="Layer_1" xmlns="http://www.w3.org/2000/svg" xmlns:xlink="http://www.w3.org/1999/xlink" x="0px" y="0px"
	 viewBox="0 0 57.6 43.2" style="enable-background:new 0 0 57.6 43.2;" xml:space="preserve">
<style type="text/css">
	.st0{fill:#87DEE8;stroke:#5C6783;stroke-width:2;}
	.st1{fill:#FFDA06;stroke:#5C6783;stroke-width:2;stroke-linecap:round;stroke-linejoin:round;}
	.st2{fill:none;stroke:#5C6783;stroke-width:2;stroke-linecap:round;stroke-linejoin:round;stroke-dasharray:0,5.9637;}
	.st3{fill:none;stroke:#5C6783;stroke-width:2;stroke-linecap:round;stroke-linejoin:round;}
</style>
<g>
	<circle class="st0" cx="35.9" cy="21.6" r="20.6"/>
	<circle class="st1" cx="35.9" cy="21.6" r="15.4"/>
	<g>
		<ellipse transform="matrix(0.2298 -0.9732 0.9732 0.2298 6.6447 51.6292)" class="st2" cx="35.9" cy="21.6" rx="18" ry="18"/>
	</g>
	<path class="st1" d="M41.1,26.7C39.8,28,38,28.8,36,28.8s-3.8-0.8-5.1-2.1c-1.3-1.3-2.1-3.1-2.1-5.1s0.8-3.8,2.1-5.1
		c1.3-1.3,3.1-2.1,5.1-2.1s3.8,0.8,5.1,2.1"/>
	<line class="st3" x1="13.2" y1="10.1" x2="28.6" y2="10.1"/>
	<line class="st3" x1="6.8" y1="34.2" x2="17.1" y2="34.2"/>
	<line class="st3" x1="1" y1="22.1" x2="12.9" y2="22.1"/>
</g>
</svg>
