<?xml version="1.0" encoding="utf-8"?>
<!-- Generator: Adobe Illustrator 22.0.0, SVG Export Plug-In . SVG Version: 6.00 Build 0)  -->
<svg version="1.1" id="Layer_1" xmlns="http://www.w3.org/2000/svg" xmlns:xlink="http://www.w3.org/1999/xlink" x="0px" y="0px"
	 viewBox="0 0 44.6 44.3" style="enable-background:new 0 0 44.6 44.3;" xml:space="preserve">
<style type="text/css">
	.st0{fill:none;stroke:#5C6783;stroke-width:2;stroke-linecap:round;stroke-linejoin:round;}
	.st1{fill:#A08AC9;stroke:#5C6783;stroke-width:2;stroke-linecap:round;stroke-linejoin:round;}
	.st2{fill:#87DEE8;stroke:#5C6783;stroke-width:2;}
	.st3{fill:#FFDA06;stroke:#5C6783;stroke-width:2;stroke-linecap:round;stroke-linejoin:round;}
</style>
<path class="st0" d="M1,9L1,9C1,9,1,9,1,9L1,9z"/>
<path class="st1" d="M1,6.4v31.2c0,3.1,2.5,5.6,5.6,5.6H38c3.1,0,5.6-2.5,5.6-5.6V11.8H6.4C3.4,11.8,1,9.4,1,6.4z"/>
<path class="st0" d="M43.6,1H6.4C3.4,1,1,3.4,1,6.4"/>
<path class="st2" d="M25.7,33.2h17.8V22.9H25.7c-1.6,0-2.9,1.3-2.9,2.9v4.6C22.8,31.9,24.1,33.2,25.7,33.2z"/>
<circle class="st3" cx="28.3" cy="28.1" r="2.3"/>
<line class="st0" x1="33.4" y1="22.9" x2="33.4" y2="32.8"/>
</svg>
