<svg
 xmlns="http://www.w3.org/2000/svg"
 xmlns:xlink="http://www.w3.org/1999/xlink"
 width="42px" height="24px">
<path fill-rule="evenodd"  fill="#000000;"
 d="M41.777,21.240 L41.777,22.830 C41.777,23.390 41.325,23.843 40.769,23.843 C40.212,23.843 39.760,23.390 39.760,22.830 L39.760,21.240 C39.760,17.709 36.901,14.836 33.385,14.836 C31.893,14.836 30.522,15.357 29.434,16.224 C29.587,16.859 29.677,17.519 29.677,18.201 L29.677,22.830 C29.677,23.390 29.226,23.843 28.669,23.843 C28.112,23.843 27.660,23.390 27.660,22.830 L27.660,18.441 L27.660,18.201 C27.660,17.292 27.468,16.428 27.127,15.644 C26.142,13.382 23.896,11.797 21.285,11.797 C18.675,11.797 16.429,13.382 15.444,15.644 C15.103,16.428 14.910,17.292 14.910,18.201 L14.910,18.441 L14.910,22.899 C14.910,23.459 14.459,23.912 13.902,23.912 C13.345,23.912 12.894,23.459 12.894,22.899 L12.894,18.201 C12.894,17.519 12.983,16.859 13.136,16.224 C12.049,15.357 10.678,14.836 9.185,14.836 C5.670,14.836 2.810,17.709 2.810,21.240 L2.810,22.899 C2.810,23.459 2.359,23.912 1.802,23.912 C1.245,23.912 0.794,23.459 0.794,22.899 L0.794,21.240 C0.794,17.783 2.878,14.807 5.850,13.508 C4.635,12.523 3.841,11.034 3.841,9.347 C3.841,6.386 6.239,3.977 9.185,3.977 C12.132,3.977 14.530,6.386 14.530,9.347 C14.530,11.040 13.731,12.534 12.508,13.519 C12.986,13.727 13.449,13.963 13.876,14.253 C14.766,12.574 16.205,11.233 17.951,10.470 C16.735,9.484 15.941,7.995 15.941,6.308 C15.941,3.347 18.338,0.938 21.285,0.938 C24.233,0.938 26.630,3.347 26.630,6.308 C26.630,7.995 25.836,9.485 24.620,10.470 C26.365,11.233 27.805,12.574 28.695,14.253 C29.122,13.963 29.585,13.727 30.063,13.519 C28.840,12.534 28.041,11.040 28.041,9.347 C28.041,6.386 30.439,3.977 33.385,3.977 C36.332,3.977 38.730,6.386 38.730,9.347 C38.730,11.034 37.936,12.523 36.721,13.508 C39.692,14.807 41.777,17.783 41.777,21.240 ZM9.185,6.003 C7.350,6.003 5.858,7.503 5.858,9.347 C5.858,11.190 7.350,12.690 9.185,12.690 C11.020,12.690 12.513,11.190 12.513,9.347 C12.513,7.503 11.020,6.003 9.185,6.003 ZM21.285,2.964 C19.450,2.964 17.957,4.464 17.957,6.308 C17.957,8.151 19.450,9.651 21.285,9.651 C23.120,9.651 24.614,8.151 24.614,6.308 C24.614,4.464 23.120,2.964 21.285,2.964 ZM33.385,6.003 C31.550,6.003 30.058,7.503 30.058,9.347 C30.058,11.190 31.550,12.690 33.385,12.690 C35.220,12.690 36.714,11.190 36.714,9.347 C36.714,7.503 35.220,6.003 33.385,6.003 Z"/>
</svg>
