<?xml version="1.0" encoding="utf-8"?>
<!-- Generator: Adobe Illustrator 19.2.1, SVG Export Plug-In . SVG Version: 6.00 Build 0)  -->
<svg version="1.1" id="Layer_1" xmlns="http://www.w3.org/2000/svg" xmlns:xlink="http://www.w3.org/1999/xlink" x="0px" y="0px"
	 viewBox="0 0 107.1 83.6" style="enable-background:new 0 0 107.1 83.6;" xml:space="preserve">
<style type="text/css">
	.st0{fill:#FFD907;stroke:#5D6782;stroke-width:2;stroke-linecap:round;stroke-linejoin:round;}
	.st1{fill:#FFD907;}
	.st2{fill:none;stroke:#5D6782;stroke-width:2;stroke-linecap:round;stroke-linejoin:round;stroke-dasharray:0,5.0299;}
	.st3{fill:#9D8AC0;stroke:#5D6782;stroke-width:2;stroke-linecap:round;stroke-linejoin:round;}
	.st4{fill:none;stroke:#5D6782;stroke-width:2;stroke-linecap:round;stroke-linejoin:round;}
	.st5{fill:#8DCFDD;stroke:#5D6782;stroke-width:2;stroke-linecap:round;stroke-linejoin:round;}
	.st6{fill:#FFFFFF;stroke:#5D6782;stroke-width:2;stroke-linecap:round;stroke-linejoin:round;}
</style>
<g>
	<circle class="st0" cx="53.6" cy="44.1" r="19.1"/>
	<g>
		<circle class="st1" cx="53.6" cy="44.1" r="13.6"/>
		<circle class="st2" cx="53.6" cy="44.1" r="13.6"/>
	</g>
	<circle class="st3" cx="53.6" cy="44.1" r="9"/>
	<path class="st4" d="M21.9,9.3v11.5c0,2.3,1.9,4.2,4.2,4.2h8.6c2.3,0,4.2,1.9,4.2,4.2v2.2"/>
	<path class="st4" d="M53.6,25v-9.7c0-2.3,1.9-4.2,4.2-4.2h27"/>
	<path class="st4" d="M72.7,44.1H77c2.3,0,4.2-1.9,4.2-4.2v-4.4c0-2.3,1.9-4.2,4.2-4.2h13.4"/>
	<path class="st4" d="M62.8,60.8v8.3c0,2.3,1.9,4.2,4.2,4.2H75"/>
	<path class="st4" d="M44.3,60.8v13.4c0,2.3-1.9,4.2-4.2,4.2h-9.3"/>
	<line class="st4" x1="36.6" y1="52.9" x2="19.3" y2="52.9"/>
	<line class="st4" x1="34.4" y1="41.4" x2="9.3" y2="41.4"/>
	<path class="st3" d="M5.2,45.6L5.2,45.6c-2.3,0-4.2-1.9-4.2-4.2v0c0-2.3,1.9-4.2,4.2-4.2h0c2.3,0,4.2,1.9,4.2,4.2v0
		C9.3,43.7,7.5,45.6,5.2,45.6z"/>
	<path class="st5" d="M21.9,9.3L21.9,9.3c-2.3,0-4.2-1.9-4.2-4.2v0c0-2.3,1.9-4.2,4.2-4.2h0C24.2,1,26,2.9,26,5.2v0
		C26,7.5,24.2,9.3,21.9,9.3z"/>
	<path class="st3" d="M88,15.3L88,15.3c-2.3,0-4.2-1.9-4.2-4.2v0C83.8,8.9,85.7,7,88,7h0c2.3,0,4.2,1.9,4.2,4.2v0
		C92.1,13.5,90.3,15.3,88,15.3z"/>
	<path class="st6" d="M28,82.6L28,82.6c-2.3,0-4.2-1.9-4.2-4.2v0c0-2.3,1.9-4.2,4.2-4.2h0c2.3,0,4.2,1.9,4.2,4.2v0
		C32.1,80.7,30.2,82.6,28,82.6z"/>
	<path class="st5" d="M17.7,57.2L17.7,57.2c-2.3,0-4.2-1.9-4.2-4.2v0c0-2.3,1.9-4.2,4.2-4.2h0c2.3,0,4.2,1.9,4.2,4.2v0
		C21.9,55.4,20,57.2,17.7,57.2z"/>
	<path class="st5" d="M78.2,77.5L78.2,77.5c-2.3,0-4.2-1.9-4.2-4.2v0c0-2.3,1.9-4.2,4.2-4.2h0c2.3,0,4.2,1.9,4.2,4.2v0
		C82.4,75.6,80.5,77.5,78.2,77.5z"/>
	<path class="st6" d="M102,35.5L102,35.5c-2.3,0-4.2-1.9-4.2-4.2v0c0-2.3,1.9-4.2,4.2-4.2h0c2.3,0,4.2,1.9,4.2,4.2v0
		C106.1,33.7,104.3,35.5,102,35.5z"/>
</g>
</svg>
