<?xml version="1.0" encoding="utf-8"?>
<!-- Generator: Adobe Illustrator 19.2.1, SVG Export Plug-In . SVG Version: 6.00 Build 0)  -->
<svg version="1.1" id="Layer_1" xmlns="http://www.w3.org/2000/svg" xmlns:xlink="http://www.w3.org/1999/xlink" x="0px" y="0px"
	 viewBox="0 0 104.1 95.6" style="enable-background:new 0 0 104.1 95.6;" xml:space="preserve">
<style type="text/css">
	.st0{fill:none;stroke:#5D6782;stroke-width:2;stroke-linecap:round;stroke-linejoin:round;}
	.st1{fill:#FFFFFF;stroke:#5D6782;stroke-width:2;stroke-linecap:round;stroke-linejoin:round;}
	.st2{fill:#FFD907;stroke:#5D6782;stroke-width:2;stroke-linecap:round;stroke-linejoin:round;}
	.st3{fill:#8DCFDD;stroke:#5D6782;stroke-width:2;stroke-linecap:round;stroke-linejoin:round;}
	.st4{fill:#9E88BF;stroke:#5D6782;stroke-width:2;stroke-linecap:round;stroke-linejoin:round;}
	.st5{fill:none;stroke:#FFFFFF;stroke-width:2;stroke-linecap:round;}
</style>
<g>
	<path class="st0" d="M21.9,86.3V74.8c0-2.3,1.9-4.2,4.2-4.2h8.6c2.3,0,4.2-1.9,4.2-4.2v-2.2"/>
	<path class="st0" d="M53.6,70.6v9.7c0,2.3,1.9,4.2,4.2,4.2h27"/>
	<path class="st0" d="M69.7,51.5H74c2.3,0,4.2,1.9,4.2,4.2v4.4c0,2.3,1.9,4.2,4.2,4.2h13.4"/>
	<line class="st0" x1="36.6" y1="42.7" x2="19.3" y2="42.7"/>
	<line class="st0" x1="34.4" y1="54.2" x2="9.3" y2="54.2"/>
	<path class="st1" d="M5.2,50L5.2,50C2.9,50,1,51.9,1,54.2v0c0,2.3,1.9,4.2,4.2,4.2h0c2.3,0,4.2-1.9,4.2-4.2v0
		C9.3,51.9,7.5,50,5.2,50z"/>
	<path class="st2" d="M21.9,86.3L21.9,86.3c-2.3,0-4.2,1.9-4.2,4.2v0c0,2.3,1.9,4.2,4.2,4.2h0c2.3,0,4.2-1.9,4.2-4.2v0
		C26,88.2,24.2,86.3,21.9,86.3z"/>
	<path class="st1" d="M88,80.3L88,80.3c-2.3,0-4.2,1.9-4.2,4.2v0c0,2.3,1.9,4.2,4.2,4.2h0c2.3,0,4.2-1.9,4.2-4.2v0
		C92.1,82.2,90.3,80.3,88,80.3z"/>
	<path class="st3" d="M17.7,38.4L17.7,38.4c-2.3,0-4.2,1.9-4.2,4.2v0c0,2.3,1.9,4.2,4.2,4.2h0c2.3,0,4.2-1.9,4.2-4.2v0
		C21.9,40.3,20,38.4,17.7,38.4z"/>
	<line class="st0" x1="53.5" y1="26.2" x2="70.8" y2="26.2"/>
	<path class="st3" d="M72.4,21.9L72.4,21.9c2.3,0,4.2,1.9,4.2,4.2v0c0,2.3-1.9,4.2-4.2,4.2h0c-2.3,0-4.2-1.9-4.2-4.2v0
		C68.2,23.8,70.1,21.9,72.4,21.9z"/>
	<path class="st2" d="M99,60.1L99,60.1c-2.3,0-4.2,1.9-4.2,4.2v0c0,2.3,1.9,4.2,4.2,4.2h0c2.3,0,4.2-1.9,4.2-4.2v0
		C103.1,61.9,101.3,60.1,99,60.1z"/>
	<path class="st0" d="M42.6,34.4v-4.3c0-2.3-1.9-4.2-4.2-4.2H34c-2.3,0-4.2-1.9-4.2-4.2V8.4"/>
	<path class="st2" d="M34,5.2L34,5.2c0,2.3-1.9,4.2-4.2,4.2h0c-2.3,0-4.2-1.9-4.2-4.2v0c0-2.3,1.9-4.2,4.2-4.2h0
		C32.2,1,34,2.9,34,5.2z"/>
	<g>
		<path class="st0" d="M51.2,26.2h4.2c4.8,0,8.6,3.9,8.6,8.6V50c0,4.8-3.9,8.6-8.6,8.6h-4.2c-4.8,0-8.6-3.9-8.6-8.6V34.8
			C42.6,30,46.5,26.2,51.2,26.2z"/>
		<circle class="st3" cx="53.3" cy="56.4" r="18.1"/>
		<path class="st1" d="M55.2,55.7v-4.2c0-1-0.8-1.9-1.9-1.9h0c-1,0-1.9,0.8-1.9,1.9v4.2c-1.5,0.8-2.5,2.5-2,4.5
			c0.3,1.4,1.5,2.6,2.9,2.9c2.6,0.6,4.9-1.4,4.9-3.9C57.3,57.7,56.4,56.3,55.2,55.7z"/>
		<g>
			<path id="Fill-1261_7_" class="st4" d="M35.2,49.8c-5.1,0-9.2-4.1-9.2-9.2s4.1-9.2,9.2-9.2s9.2,4.1,9.2,9.2S40.3,49.8,35.2,49.8z
				"/>
			<g>
				<g>
					<path class="st5" d="M32.8,43.1"/>
					<line class="st5" x1="37.7" y1="38.1" x2="32.8" y2="43.1"/>
				</g>
				<g>
					<path class="st5" d="M32.7,38.1"/>
					<line class="st5" x1="37.7" y1="43" x2="32.7" y2="38.1"/>
				</g>
			</g>
		</g>
	</g>
</g>
</svg>
