<?xml version="1.0" encoding="utf-8"?>
<!-- Generator: Adobe Illustrator 19.2.1, SVG Export Plug-In . SVG Version: 6.00 Build 0)  -->
<svg version="1.1" id="Layer_1" xmlns="http://www.w3.org/2000/svg" xmlns:xlink="http://www.w3.org/1999/xlink" x="0px" y="0px"
	 viewBox="0 0 107.1 83.6" style="enable-background:new 0 0 107.1 83.6;" xml:space="preserve">
<style type="text/css">
	.st0{fill:none;stroke:#5D6782;stroke-width:2;stroke-linecap:round;stroke-linejoin:round;}
	.st1{fill:#FFFFFF;stroke:#5D6782;stroke-width:2;stroke-linecap:round;stroke-linejoin:round;}
	.st2{fill:#FFD907;stroke:#5D6782;stroke-width:2;stroke-linecap:round;stroke-linejoin:round;}
	.st3{fill:#8DCFDD;stroke:#5D6782;stroke-width:2;stroke-linecap:round;stroke-linejoin:round;}
	.st4{fill:#9E88BF;}
	.st5{fill:#8DCFDD;}
	.st6{fill:#FFFFFF;}
</style>
<g>
	<g>
		<path class="st0" d="M85.2,9.3v11.5c0,2.3-1.9,4.2-4.2,4.2h-8.6c-2.3,0-4.2,1.9-4.2,4.2v2.2"/>
		<path class="st0" d="M53.6,25v-9.7c0-2.3-1.9-4.2-4.2-4.2h-27"/>
		<path class="st0" d="M34.4,44.1h-4.3c-2.3,0-4.2-1.9-4.2-4.2v-4.4c0-2.3-1.9-4.2-4.2-4.2H8.4"/>
		<path class="st0" d="M44.3,60.8v8.3c0,2.3-1.9,4.2-4.2,4.2h-8.1"/>
		<path class="st0" d="M62.8,60.8v13.4c0,2.3,1.9,4.2,4.2,4.2h9.3"/>
		<line class="st0" x1="70.5" y1="52.9" x2="87.8" y2="52.9"/>
		<line class="st0" x1="72.7" y1="41.4" x2="97.8" y2="41.4"/>
		<path class="st1" d="M102,45.6L102,45.6c2.3,0,4.2-1.9,4.2-4.2v0c0-2.3-1.9-4.2-4.2-4.2h0c-2.3,0-4.2,1.9-4.2,4.2v0
			C97.8,43.7,99.7,45.6,102,45.6z"/>
		<path class="st2" d="M85.3,9.3L85.3,9.3c2.3,0,4.2-1.9,4.2-4.2v0c0-2.3-1.9-4.2-4.2-4.2h0c-2.3,0-4.2,1.9-4.2,4.2v0
			C81.1,7.5,83,9.3,85.3,9.3z"/>
		<path class="st1" d="M19.2,15.3L19.2,15.3c2.3,0,4.2-1.9,4.2-4.2v0c0-2.3-1.9-4.2-4.2-4.2h0C16.9,7,15,8.9,15,11.2v0
			C15,13.5,16.9,15.3,19.2,15.3z"/>
		<path class="st2" d="M79.2,82.6L79.2,82.6c2.3,0,4.2-1.9,4.2-4.2v0c0-2.3-1.9-4.2-4.2-4.2h0c-2.3,0-4.2,1.9-4.2,4.2v0
			C75,80.7,76.9,82.6,79.2,82.6z"/>
		<path class="st3" d="M89.4,57.2L89.4,57.2c2.3,0,4.2-1.9,4.2-4.2v0c0-2.3-1.9-4.2-4.2-4.2h0c-2.3,0-4.2,1.9-4.2,4.2v0
			C85.3,55.4,87.1,57.2,89.4,57.2z"/>
		<path class="st1" d="M28.9,77.5L28.9,77.5c2.3,0,4.2-1.9,4.2-4.2v0c0-2.3-1.9-4.2-4.2-4.2h0c-2.3,0-4.2,1.9-4.2,4.2v0
			C24.8,75.6,26.6,77.5,28.9,77.5z"/>
		<path class="st2" d="M5.2,35.5L5.2,35.5c2.3,0,4.2-1.9,4.2-4.2v0c0-2.3-1.9-4.2-4.2-4.2h0c-2.3,0-4.2,1.9-4.2,4.2v0
			C1,33.7,2.9,35.5,5.2,35.5z"/>
	</g>
	<g>
		<path id="Fill-1261_5_" class="st4" d="M53.6,63.2c10.6,0,19.1-8.6,19.1-19.1S64.1,25,53.6,25s-19.1,8.6-19.1,19.1
			S43,63.2,53.6,63.2z"/>
		<path id="Fill-2254_1_" class="st5" d="M55.8,28.6c1.4-0.3,2.1-1.9,1.2-3.1l-0.2-0.3c1.9,0.3,3.7,0.9,5.4,1.8
			c-1.2,0.3-2,1.3-2,2.6c0,1.5,1.2,2.6,2.6,2.6c1.5,0,2.6-1.2,2.6-2.6c0-0.2,0-0.4-0.1-0.5c-0.7-0.6,1.4,1.1,2.9,2.8
			c-0.3,0.6-0.3,1.3,0.1,2l0.5,0.8l-1.3,1.3l-0.8-0.6c-1.2-0.9-2.8-0.2-3.1,1.2l-0.2,1h-1.8l-0.1-0.7c-0.2-1.5-1.9-2.2-3.1-1.3
			L58,35.9l-1.3-1.3l0.5-0.8c0.8-1.2,0.1-2.8-1.3-3l-1-0.2v-1.8L55.8,28.6z"/>
		<path id="Fill-2255_1_" class="st5" d="M40.4,54.3c0-2-1.6-3.6-3.6-3.6c-0.4,0-0.7,0.1-1.1,0.2c-0.4-1.1-0.7-2.2-0.9-3.4
			c0.4-0.4,0.7-0.9,0.8-1.5l0.2-1.3H38l0.3,1.5c0.3,1.7,2.3,2.6,3.8,1.6l1.3-0.9l1.6,1.6l-0.7,1c-1.1,1.5-0.3,3.5,1.5,3.9l1.2,0.2
			V56l-1.3,0.2c-1.8,0.3-2.7,2.3-1.7,3.8l0.7,1l-0.1,0.1c-2-1.1-3.8-2.5-5.4-4.2C40,56.2,40.4,55.3,40.4,54.3"/>
		<path id="Fill-2256_1_" class="st5" d="M44.3,36.8c-1.1,0-2-0.9-2-2c0-1.1,0.9-2,2-2s2,0.9,2,2C46.3,36,45.4,36.8,44.3,36.8
			L44.3,36.8z M38.7,41.4c1.3,1.2,3.1,1.9,4.9,2.1c0,0,1.3,0,1.3,0c1.9-0.1,3.6-0.9,4.9-2c0,0,0.9-0.9,0.9-1
			c1.2-1.3,1.9-3.1,2.1-4.9c0,0,0-1.3,0-1.3c-0.1-1.9-0.9-3.6-2-4.9c0,0-0.9-0.9-0.9-0.9c-1.1-0.9-2.4-1.6-3.8-1.9
			c-4.6,1.9-8.2,5.6-10.2,10.2c0.3,1.4,1,2.7,1.9,3.8C37.8,40.5,38.7,41.4,38.7,41.4z"/>
		<path id="Fill-2257_1_" class="st6" d="M58.8,51.4c0,1.1,0.9,2,2,2s2-0.9,2-2c0-1.1-0.9-2-2-2S58.8,50.3,58.8,51.4"/>
		<path id="Fill-3255_1_" class="st5" d="M60.8,55.3c-2.2,0-4-1.8-4-4s1.8-4,4-4c2.2,0,4,1.8,4,4S63,55.3,60.8,55.3z M50.9,56.5
			c1.2,2.2,3,4,5.3,5.1c0,0,1.2,0.5,1.2,0.4c0.5,0.2,1.1,0.3,1.7,0.4c0.8-0.2,1.5-0.5,2.2-0.8c0,0,0.1,0,0.1,0
			c0.3-0.1,0.6-0.3,0.9-0.5c0,0,0.1,0,0.1-0.1c1-0.5,2-1.2,2.9-1.8c0,0,0.1-0.1,0.1-0.1c0.3-0.2,0.5-0.4,0.8-0.7c0,0,0,0,0.1,0
			c0.6-0.5,1.1-1,1.6-1.6c0,0,0,0,0-0.1c0.2-0.3,0.5-0.5,0.7-0.8c0,0,0.1-0.1,0.1-0.1c0.7-0.9,1.3-1.9,1.8-2.9c0,0,0-0.1,0.1-0.1
			c0.2-0.3,0.3-0.6,0.5-0.9c0,0,0-0.1,0-0.1c0.3-0.7,0.6-1.4,0.8-2.2c-0.1-0.7-0.3-1.5-0.6-2.2c0,0-0.5-1.2-0.5-1.2
			c-1.1-2.2-3-4-5.3-5.1c0,0-1.2-0.5-1.2-0.5c-1.1-0.4-2.2-0.6-3.4-0.6c-1.4,0-2.7,0.3-4,0.7c0,0-1.2,0.5-1.2,0.6
			c-2.2,1.1-4,3-5.1,5.3c0,0-0.5,1.2-0.5,1.2c-0.4,1.1-0.5,2.2-0.5,3.4c0,1.4,0.3,2.7,0.7,4"/>
		<path id="Stroke-4331_1_" class="st0" d="M48.9,56.6l1.6-0.7"/>
		<path id="Stroke-4332_1_" class="st0" d="M55.5,39.5l0.7,1.6"/>
		<path id="Stroke-4333_1_" class="st0" d="M50.4,47.3l-1.4-0.6"/>
		<path id="Stroke-4334_1_" class="st0" d="M64.9,40.9l0.6-1.4"/>
		<path id="Stroke-4336_1_" class="st1" d="M42.3,34.9c0,1.1,0.9,2,2,2s2-0.9,2-2c0-1.1-0.9-2-2-2S42.3,33.8,42.3,34.9L42.3,34.9z"
			/>
		<path id="Stroke-4338_1_" class="st0" d="M44.3,44.8v-1.3"/>
		<path id="Stroke-4339_1_" class="st0" d="M54.2,34.9h-1.3"/>
		<path id="Stroke-4340_1_" class="st0" d="M51.3,41.9l-0.9-0.9"/>
		<path id="Stroke-4341_1_" class="st0" d="M38.3,40.9l-0.9,0.9"/>
		<path id="Stroke-4342_1_" class="st0" d="M51.3,27.9l-0.9,0.9"/>
		<path id="Stroke-4343_1_" class="st0" d="M34.4,44.1c0,10.6,8.6,19.1,19.1,19.1s19.1-8.6,19.1-19.1S64.1,25,53.6,25
			S34.4,33.5,34.4,44.1L34.4,44.1z"/>
		<path id="Stroke-4345_1_" class="st0" d="M35.9,36.6c1.9-4.6,5.6-8.2,10.2-10.2c3.9,0.8,6.8,4.3,6.8,8.4c0,4.7-3.8,8.6-8.6,8.6
			C40.2,43.4,36.8,40.5,35.9,36.6L35.9,36.6z"/>
		<path id="Stroke-4346_1_" class="st0" d="M60.8,40.1c5.6,0,10.2,4.1,11.1,9.5c-1.8,6.1-6.7,11-12.8,12.8
			c-5.4-0.8-9.5-5.5-9.5-11.1C49.6,45.2,54.6,40.1,60.8,40.1L60.8,40.1z"/>
		<path id="Stroke-4347_1_" class="st0" d="M56.8,25.2c4.6,0.8,8.6,3.2,11.5,6.6c-0.3,0.6-0.3,1.3,0.1,2l0.5,0.8l-1.3,1.3l-0.8-0.6
			c-1.2-0.9-2.8-0.2-3.1,1.2l-0.2,1h-1.8l-0.1-0.7c-0.2-1.5-1.9-2.2-3.1-1.3L58,35.9l-1.3-1.3l0.5-0.8c0.8-1.2,0.1-2.8-1.3-3l-1-0.2
			v-1.8l1-0.2c1.4-0.3,2.1-1.9,1.2-3.1L56.8,25.2L56.8,25.2z"/>
		<path id="Stroke-4348_1_" class="st1" d="M65.4,29.6c0,1.5-1.2,2.6-2.6,2.6c-1.5,0-2.6-1.2-2.6-2.6c0-1.2,0.9-2.3,2-2.6
			c1.1,0.6,2.2,1.3,3.2,2C65.4,29.2,65.4,29.4,65.4,29.6L65.4,29.6z"/>
		<path id="Stroke-4349_1_" class="st1" d="M61,55.1c2.2,0,4-1.8,4-4c0-2.2-1.8-4-4-4c-2.2,0-4,1.8-4,4C57,53.4,58.8,55.1,61,55.1z"
			/>
		<path id="Stroke-4414_1_" class="st0" d="M34.7,47.5c0.4-0.4,0.7-0.9,0.8-1.5l0.2-1.3H38l0.3,1.5c0.3,1.7,2.3,2.6,3.8,1.6l1.3-0.9
			l1.6,1.6l-0.7,1c-1.1,1.5-0.3,3.5,1.5,3.9l1.2,0.2V56l-1.3,0.2c-1.8,0.3-2.7,2.3-1.7,3.8l0.7,1l-0.1,0.1
			C39.5,58.4,35.8,53.4,34.7,47.5L34.7,47.5z"/>
		<path id="Stroke-4415_1_" class="st1" d="M39.3,56.9c-1.6-1.7-2.8-3.8-3.7-6c0.3-0.1,0.7-0.2,1.1-0.2c2,0,3.6,1.6,3.6,3.6
			C40.4,55.3,40,56.2,39.3,56.9L39.3,56.9z"/>
	</g>
</g>
</svg>
