<?xml version="1.0" encoding="utf-8"?>
<!-- Generator: Adobe Illustrator 19.2.1, SVG Export Plug-In . SVG Version: 6.00 Build 0)  -->
<svg version="1.1" id="Layer_1" xmlns="http://www.w3.org/2000/svg" xmlns:xlink="http://www.w3.org/1999/xlink" x="0px" y="0px"
	 viewBox="0 0 83.6 86.2" style="enable-background:new 0 0 83.6 86.2;" xml:space="preserve">
<style type="text/css">
	.st0{fill:#9E88BF;stroke:#5D6782;stroke-width:2;stroke-linecap:round;stroke-linejoin:round;}
	.st1{fill:#FFFFFF;stroke:#5D6782;stroke-width:2;stroke-linecap:round;stroke-linejoin:round;}
	.st2{fill:#FFFFFF;}
	.st3{fill:#FFD907;stroke:#5D6782;stroke-width:2;stroke-linecap:round;stroke-linejoin:round;}
	.st4{fill:#8DCFDD;stroke:#5D6782;stroke-width:2;stroke-linecap:round;}
	.st5{fill:none;stroke:#5D6782;stroke-width:2;stroke-linecap:round;}
	.st6{fill:#A8D9E2;}
</style>
<g>
	<path class="st0" d="M49.9,73.2H1V25.1c0-4.9,4-8.9,8.9-8.9h40V73.2z"/>
	<path class="st1" d="M49.9,79.7H6.6c-3.1,0-5.6-2.5-5.6-5.6v0c0-3.1,2.5-5.6,5.6-5.6h43.3V79.7z"/>
	<g>
		<path class="st2" d="M19.4,47h-3.5c-0.2,0-0.4,0.1-0.5,0.4l-0.5,1.2c-0.1,0.2-0.3,0.4-0.5,0.4h-2.6c-0.4,0-0.7-0.4-0.5-0.8
			l4.4-10.1c0.1-0.2,0.3-0.3,0.5-0.3h3c0.2,0,0.4,0.1,0.5,0.3l4.4,10.1c0.2,0.4-0.1,0.8-0.5,0.8h-2.7c-0.2,0-0.4-0.1-0.5-0.4
			l-0.5-1.2C19.8,47.1,19.6,47,19.4,47z M18.4,43.5l-0.3-0.7c-0.2-0.5-0.8-0.5-1,0l-0.3,0.7c-0.1,0.4,0.1,0.7,0.5,0.7h0.6
			C18.3,44.3,18.5,43.9,18.4,43.5z"/>
		<path class="st2" d="M24.9,42.9h3.7c0.3,0,0.5,0.2,0.5,0.5v1.6c0,0.3-0.2,0.5-0.5,0.5h-3.7c-0.3,0-0.5-0.2-0.5-0.5v-1.6
			C24.3,43.2,24.6,42.9,24.9,42.9z"/>
		<path class="st2" d="M40.6,46.6v1.8c0,0.3-0.2,0.5-0.5,0.5h-9.2c-0.3,0-0.5-0.2-0.5-0.5v-1.6c0-0.1,0-0.3,0.1-0.4l4.2-4.9
			c0.3-0.4,0.1-0.9-0.4-0.9h-3.2c-0.3,0-0.5-0.2-0.5-0.5v-1.8c0-0.3,0.2-0.5,0.5-0.5h8.8c0.3,0,0.5,0.2,0.5,0.5v1.6
			c0,0.1,0,0.3-0.1,0.4l-4.2,4.9C35.7,45.5,36,46,36.5,46h3.6C40.4,46,40.6,46.2,40.6,46.6z"/>
	</g>
	<line class="st1" x1="7.6" y1="74.1" x2="49.9" y2="74.1"/>
	<path class="st3" d="M43.3,85l-2.6-2c-0.4-0.3-1-0.3-1.5,0l-2.6,2c-0.8,0.6-2,0-2-1v-5.6v-4.2h5.3h5.3v4.2V84
		C45.2,85,44.1,85.6,43.3,85z"/>
	<circle class="st4" cx="36.7" cy="17" r="8.4"/>
	<circle class="st4" cx="58.9" cy="17" r="8.4"/>
	<path class="st5" d="M66,12.4l9-7.1c1.6-1.3,3.9-1.1,5.4,0.3l2.2,2.2"/>
	<path class="st5" d="M34,8.9l9-7.1c1.6-1.3,3.9-1.1,5.4,0.3l2.2,2.2"/>
	<g>
		<path class="st6" d="M38.9,10.1l-9,9c0.7,2.2,2.4,4,4.7,4.7l9-9C42.9,12.6,41.1,10.8,38.9,10.1z"/>
	</g>
	<g>
		<path class="st6" d="M61.1,10.1l-9,9c0.7,2.2,2.4,4,4.7,4.7l9-9C65.1,12.6,63.3,10.8,61.1,10.1z"/>
	</g>
</g>
</svg>
