<?xml version="1.0" encoding="utf-8"?>
<!-- Generator: Adobe Illustrator 19.2.1, SVG Export Plug-In . SVG Version: 6.00 Build 0)  -->
<svg version="1.1" id="Layer_1" xmlns="http://www.w3.org/2000/svg" xmlns:xlink="http://www.w3.org/1999/xlink" x="0px" y="0px"
	 viewBox="0 0 112.7 74.3" style="enable-background:new 0 0 112.7 74.3;" xml:space="preserve">
<style type="text/css">
	.st0{fill:#FFD907;stroke:#5D6782;stroke-width:2;stroke-linecap:round;stroke-linejoin:round;}
	.st1{fill:#9D8AC0;stroke:#5D6782;stroke-width:2;stroke-linecap:round;stroke-linejoin:round;}
	.st2{fill:none;stroke:#5D6782;stroke-width:2;stroke-linecap:round;stroke-dasharray:0,5.9267;}
	.st3{fill:#FFFFFF;}
	.st4{fill:#6C778D;stroke:#5D6782;stroke-width:2;stroke-linecap:round;stroke-linejoin:round;}
	.st5{fill:#FFFFFF;stroke:#5D6782;stroke-width:2;stroke-linecap:round;stroke-linejoin:round;}
	.st6{fill:#8891A4;stroke:#5D6782;stroke-width:2;stroke-linecap:round;stroke-linejoin:round;}
</style>
<g>
	<g>
		<circle class="st0" cx="37.1" cy="37.1" r="36.1"/>
		<circle class="st1" cx="37.1" cy="37.1" r="28.1"/>
		<g>
			<circle class="st2" cx="37.1" cy="37.1" r="32.1"/>
		</g>
		<path class="st3" d="M47.9,37c-1.1-0.9-2.8-1.2-2.8-1.2s1.4-0.8,1.9-1.6c0.6-0.8,0.8-2,0.9-2.7c0-0.6,0.2-3.3-1.9-4.9
			c-1.6-1.2-3.5-1.7-6-1.8v-5.4h-3.3v5.4h-2.5v-5.4h-3.3v5.4h-6.6v3.5h1.9c0.5,0,1.5,0.1,1.9,0.5c0.4,0.4,0.5,0.7,0.5,1.5l0,13.8
			c0,0.3-0.1,0.7-0.3,1c-0.3,0.3-0.6,0.3-1.2,0.3h-2l-0.7,4h6.6v5.3h3.3v-5.3h2.5v5.3h3.3v-5.4c0.9-0.1,1.7-0.1,2.1-0.2
			c1-0.1,3.1-0.4,5.1-1.8c2-1.4,2.5-3.6,2.5-5.8C49.9,39.4,49.1,37.8,47.9,37L47.9,37z M34.2,28.5c0,0,1.1-0.1,2.1-0.1
			c1,0,2,0,3.3,0.5c1.4,0.4,2.2,1.5,2.2,2.7c0,1.2-0.5,2-1.4,2.5c-0.9,0.5-2.2,0.8-3.5,0.8c-1.2,0-2.8,0-2.8,0V28.5z M41.7,44.5
			c-0.8,0.4-2.3,0.8-3.8,0.9c-1.5,0.1-3.7,0.1-3.7,0.1v-7.2c0,0,2.1-0.1,3.8,0c1.7,0.1,3,0.5,3.7,0.8c0.6,0.3,1.7,1,1.7,2.6
			C43.4,43.4,42.5,44.1,41.7,44.5z"/>
	</g>
	<g>
		<path class="st4" d="M88.3,38.2L76.6,49.9c-0.9,0.9-2.4,0.9-3.3,0L63.2,39.7c-0.9-0.9-0.9-2.4,0-3.3l11.6-11.6
			c0.9-0.9,2.4-0.9,3.3,0l10.1,10.1C89.2,35.9,89.2,37.3,88.3,38.2z"/>
		<path class="st5" d="M110.9,72.5L110.9,72.5c-1.1,1.1-2.8,1.1-3.9,0L80.5,46l3.9-3.9l26.5,26.5C111.9,69.6,111.9,71.4,110.9,72.5z
			"/>
		<rect x="82.4" y="20.7" transform="matrix(0.7071 -0.7071 0.7071 0.7071 4.506 68.0908)" class="st0" width="4.1" height="15.7"/>
		<path class="st4" d="M94.7,31.8L94.7,31.8c-1.2,1.2-3,1.2-4.2,0l-9.2-9.2c-1.2-1.2-1.2-3,0-4.2v0c1.2-1.2,3-1.2,4.2,0l9.2,9.2
			C95.9,28.7,95.9,30.6,94.7,31.8z"/>
		
			<rect x="64.6" y="38.5" transform="matrix(-0.7071 0.7071 -0.7071 -0.7071 146.5759 32.1182)" class="st0" width="4.1" height="15.7"/>
		<path class="st4" d="M56.4,43.2L56.4,43.2c1.2-1.2,3-1.2,4.2,0l9.2,9.2c1.2,1.2,1.2,3,0,4.2l0,0c-1.2,1.2-3,1.2-4.2,0l-9.2-9.2
			C55.2,46.3,55.2,44.4,56.4,43.2z"/>
	</g>
	<path class="st6" d="M79.6,73.2H50.8V72c0-5.9,4.8-10.6,10.6-10.6H69c5.9,0,10.6,4.8,10.6,10.6V73.2z"/>
</g>
</svg>
