<?xml version="1.0" encoding="utf-8"?>
<!-- Generator: Adobe Illustrator 19.2.1, SVG Export Plug-In . SVG Version: 6.00 Build 0)  -->
<svg version="1.1" id="Layer_1" xmlns="http://www.w3.org/2000/svg" xmlns:xlink="http://www.w3.org/1999/xlink" x="0px" y="0px"
	 viewBox="0 0 83.2 83.2" style="enable-background:new 0 0 83.2 83.2;" xml:space="preserve">
<style type="text/css">
	.st0{fill:none;stroke:#5D6782;stroke-width:2;stroke-linecap:round;stroke-linejoin:round;}
	.st1{fill:#5D6782;}
	.st2{fill:#FFD907;stroke:#5D6782;stroke-width:2;stroke-linecap:round;stroke-linejoin:round;}
	.st3{fill:#9D8AC0;stroke:#5D6782;stroke-width:2;stroke-linecap:round;stroke-linejoin:round;}
	.st4{fill:none;stroke:#5D6782;stroke-width:2;stroke-linecap:round;stroke-dasharray:0,5.8784;}
	.st5{fill:#FFFFFF;}
</style>
<g>
	<g>
		<path class="st0" d="M14.5,11.4c1.4-1.3,2.9-2.4,4.4-3.5c2.2-1.5,4.5-2.7,6.9-3.7c2.4-1,5-1.8,7.6-2.4C36.1,1.3,38.8,1,41.6,1
			s5.5,0.3,8.2,0.8c2.6,0.5,5.2,1.3,7.6,2.4c2.4,1,4.7,2.3,6.9,3.7c2.2,1.5,4.2,3.1,6,5s3.5,3.8,5,6c1.5,2.2,2.7,4.5,3.7,6.9
			c1,2.4,1.8,5,2.4,7.6c0.5,2.6,0.8,5.4,0.8,8.2s-0.3,5.5-0.8,8.2C80.8,52.4,80,55,79,57.4"/>
		<g>
			<path class="st1" d="M24.9,12.6L24.9,12.6c0-0.6-0.4-1-0.9-1.1l-7.8-0.4c-0.6,0-1-0.6-0.9-1.1l1-7.7c0.1-0.5-0.3-1.1-0.9-1.1l0,0
				c-0.5-0.1-1,0.3-1.1,0.9L13,11.8c-0.1,0.6,0.4,1.1,0.9,1.1l9.9,0.6C24.4,13.5,24.9,13.1,24.9,12.6z"/>
		</g>
	</g>
	<g>
		<path class="st0" d="M68.7,71.8c-1.4,1.3-2.9,2.4-4.4,3.5c-2.2,1.5-4.5,2.7-6.9,3.7c-2.4,1-5,1.8-7.6,2.4
			c-2.6,0.5-5.4,0.8-8.2,0.8s-5.5-0.3-8.2-0.8c-2.6-0.5-5.2-1.3-7.6-2.4c-2.4-1-4.7-2.3-6.9-3.7c-2.2-1.5-4.2-3.1-6-5
			c-1.8-1.8-3.5-3.8-5-6c-1.5-2.2-2.7-4.5-3.7-6.9c-1-2.4-1.8-5-2.4-7.6S1,44.4,1,41.6s0.3-5.5,0.8-8.2s1.3-5.2,2.4-7.6"/>
		<g>
			<path class="st1" d="M58.2,70.6L58.2,70.6c0,0.6,0.4,1,0.9,1.1l7.8,0.4c0.6,0,1,0.6,0.9,1.1l-1,7.7c-0.1,0.5,0.3,1.1,0.9,1.1l0,0
				c0.5,0.1,1-0.3,1.1-0.9l1.3-9.9c0.1-0.6-0.4-1.1-0.9-1.1l-9.9-0.6C58.7,69.6,58.3,70.1,58.2,70.6z"/>
		</g>
	</g>
	<g>
		<g>
			<circle class="st2" cx="41.6" cy="41.6" r="24.2"/>
			<circle class="st3" cx="41.6" cy="41.6" r="18.9"/>
			<g>
				<circle class="st4" cx="41.6" cy="41.6" r="21.5"/>
			</g>
			<path class="st5" d="M48.9,41.5c-0.8-0.6-1.9-0.8-1.9-0.8s0.9-0.5,1.3-1.1c0.4-0.5,0.6-1.4,0.6-1.8c0-0.4,0.1-2.2-1.3-3.3
				c-1.1-0.8-2.3-1.1-4-1.2v-3.6h-2.2v3.6h-1.7v-3.6h-2.2v3.6H33v2.3h1.3c0.4,0,1,0,1.2,0.3c0.3,0.3,0.3,0.5,0.3,1l0,9.3
				c0,0.2,0,0.5-0.2,0.7c-0.2,0.2-0.4,0.2-0.8,0.2h-1.3L33,49.9h4.4v3.6h2.2v-3.6h1.7v3.6h2.2v-3.6c0.6,0,1.1-0.1,1.4-0.1
				c0.6-0.1,2.1-0.3,3.4-1.2c1.4-0.9,1.7-2.4,1.7-3.9C50.2,43.1,49.6,42.1,48.9,41.5L48.9,41.5z M39.7,35.8c0,0,0.7-0.1,1.4-0.1
				c0.7,0,1.3,0,2.2,0.3c0.9,0.3,1.5,1,1.5,1.8c0,0.8-0.3,1.4-1,1.7c-0.6,0.3-1.5,0.5-2.3,0.6c-0.8,0-1.9,0-1.9,0L39.7,35.8z
				 M44.7,46.6c-0.5,0.3-1.5,0.5-2.5,0.6c-1,0.1-2.5,0-2.5,0v-4.8c0,0,1.4-0.1,2.5,0c1.1,0.1,2,0.4,2.5,0.6c0.4,0.2,1.2,0.7,1.2,1.8
				C45.8,45.8,45.2,46.3,44.7,46.6z"/>
		</g>
	</g>
</g>
</svg>
