<?xml version="1.0" encoding="utf-8"?>
<!-- Generator: Adobe Illustrator 19.2.1, SVG Export Plug-In . SVG Version: 6.00 Build 0)  -->
<svg version="1.1" id="Layer_1" xmlns="http://www.w3.org/2000/svg" xmlns:xlink="http://www.w3.org/1999/xlink" x="0px" y="0px"
	 viewBox="0 0 89.3 84.3" style="enable-background:new 0 0 89.3 84.3;" xml:space="preserve">
<style type="text/css">
	.st0{fill:#FFD907;stroke:#5D6782;stroke-width:2;stroke-linecap:round;stroke-linejoin:round;}
	.st1{fill:#9D8AC0;stroke:#5D6782;stroke-width:2;stroke-linecap:round;stroke-linejoin:round;}
	.st2{fill:#FFFFFF;}
	.st3{fill:#8DCFDD;stroke:#5D6782;stroke-width:2;stroke-linecap:round;}
	.st4{fill:#FFFFFF;stroke:#5D6782;stroke-width:2;stroke-linecap:round;stroke-linejoin:round;}
	.st5{fill:#FFDA06;stroke:#5D6782;stroke-width:2;stroke-linejoin:round;}
	.st6{fill:#8DCFDD;stroke:#5D6782;stroke-width:2;stroke-linecap:round;stroke-linejoin:round;}
	.st7{fill:none;stroke:#5D6782;stroke-width:2;stroke-linecap:round;}
</style>
<g>
	<circle class="st0" cx="44.6" cy="22.6" r="21.6"/>
	<circle class="st1" cx="44.6" cy="22.6" r="16.6"/>
	<path class="st2" d="M50.7,22.5c-0.6-0.5-1.6-0.7-1.6-0.7s0.8-0.4,1.1-0.9c0.3-0.4,0.5-1.1,0.5-1.5c0-0.4,0.1-1.9-1.1-2.7
		c-0.9-0.7-2-0.9-3.4-1v-3.1h-1.9v3H43v-3h-1.9v3h-3.7v2h1.1c0.3,0,0.8,0,1,0.3c0.2,0.3,0.3,0.4,0.3,0.9l0,7.8c0,0.2,0,0.4-0.2,0.6
		c-0.2,0.1-0.3,0.2-0.7,0.2h-1.1l-0.4,2.3h3.7v3H43v-3h1.4v3h1.9v-3.1c0.5,0,0.9-0.1,1.2-0.1c0.5-0.1,1.8-0.2,2.9-1
		c1.1-0.8,1.4-2,1.4-3.3C51.9,23.8,51.4,23,50.7,22.5L50.7,22.5z M43,17.7c0,0,0.6-0.1,1.2,0c0.6,0,1.1,0,1.9,0.3
		c0.8,0.2,1.2,0.8,1.2,1.5c0,0.7-0.3,1.1-0.8,1.4c-0.5,0.3-1.3,0.4-1.9,0.5c-0.7,0-1.6,0-1.6,0V17.7z M47.2,26.7
		c-0.4,0.2-1.3,0.4-2.1,0.5c-0.8,0.1-2.1,0-2.1,0v-4c0,0,1.2-0.1,2.1,0c0.9,0.1,1.7,0.3,2.1,0.5c0.4,0.2,1,0.6,1,1.5
		C48.2,26.1,47.7,26.5,47.2,26.7z"/>
	<path class="st3" d="M85.3,81.4H4c-1.6,0-3-1.3-3-3V32.7c0-1.6,1.3-3,3-3h81.3c1.6,0,3,1.3,3,3v45.7C88.3,80,86.9,81.4,85.3,81.4z"
		/>
	<path class="st1" d="M47.1,83.3h-4.9c-2.6,0-4.6-2.1-4.6-4.6v-3.8h14.2v3.8C51.7,81.2,49.6,83.3,47.1,83.3z"/>
	<path class="st4" d="M44.6,74.9h-36c-1,0-1.8-0.8-1.8-1.8V27.1c0-1,0.8-1.8,1.8-1.8h27.2c4.9,0,8.9,4,8.9,8.9V74.9z"/>
	<path class="st4" d="M44.6,74.9h36c1,0,1.8-0.8,1.8-1.8V27.1c0-1-0.8-1.8-1.8-1.8H53.5c-4.9,0-8.9,4-8.9,8.9L44.6,74.9L44.6,74.9z"
		/>
	<g>
		<g>
			<circle class="st5" cx="63.6" cy="39.1" r="7.7"/>
			<path class="st6" d="M69.1,44.4c1.3-1.4,2.2-3.3,2.2-5.4c0-4.3-3.5-7.7-7.7-7.7v7.5L69.1,44.4z"/>
		</g>
	</g>
	<line class="st7" x1="53.5" y1="56.8" x2="57.1" y2="56.8"/>
	<line class="st7" x1="53.5" y1="63.6" x2="65.1" y2="63.6"/>
	<line class="st7" x1="61.2" y1="56.8" x2="74.8" y2="56.8"/>
	<line class="st7" x1="69.2" y1="63.6" x2="74.8" y2="63.6"/>
	<line class="st7" x1="15.1" y1="36.6" x2="18.6" y2="36.6"/>
	<line class="st7" x1="15.1" y1="43.4" x2="26.6" y2="43.4"/>
	<line class="st7" x1="15.1" y1="50.1" x2="20.6" y2="50.1"/>
	<line class="st7" x1="15.1" y1="56.8" x2="18.6" y2="56.8"/>
	<line class="st7" x1="15.1" y1="63.6" x2="23.6" y2="63.6"/>
	<line class="st7" x1="22.8" y1="36.6" x2="36.3" y2="36.6"/>
	<line class="st7" x1="30.8" y1="43.4" x2="36.3" y2="43.4"/>
	<line class="st7" x1="24.8" y1="50.1" x2="31.3" y2="50.1"/>
	<line class="st7" x1="22.8" y1="56.8" x2="30.3" y2="56.8"/>
	<line class="st7" x1="27.8" y1="63.6" x2="36.3" y2="63.6"/>
</g>
</svg>
