<?xml version="1.0" encoding="utf-8"?>
<!-- Generator: Adobe Illustrator 19.2.1, SVG Export Plug-In . SVG Version: 6.00 Build 0)  -->
<svg version="1.1" id="Layer_1" xmlns="http://www.w3.org/2000/svg" xmlns:xlink="http://www.w3.org/1999/xlink" x="0px" y="0px"
	 viewBox="0 0 73.6 99.3" style="enable-background:new 0 0 73.6 99.3;" xml:space="preserve">
<style type="text/css">
	.st0{fill:#FFD907;stroke:#5D6782;stroke-width:2;stroke-linecap:round;stroke-linejoin:round;}
	.st1{fill:#FFFFFF;stroke:#5D6782;stroke-width:2;stroke-linecap:round;stroke-linejoin:round;}
	.st2{fill:none;stroke:#5D6782;stroke-width:2;stroke-linecap:round;stroke-dasharray:0,6.2184;}
	.st3{fill:none;}
	.st4{fill:#9E88BF;stroke:#5D6782;stroke-width:2;stroke-linecap:round;stroke-linejoin:round;}
	.st5{fill:#8DCFDD;stroke:#5D6782;stroke-width:2;stroke-linecap:round;stroke-linejoin:round;}
	.st6{fill:#8DCFDD;}
	.st7{fill:none;stroke:#5D6782;stroke-width:2;stroke-linecap:round;stroke-linejoin:round;}
	.st8{fill:#9E88BF;}
</style>
<g>
	<g>
		<g>
			<circle class="st0" cx="28.7" cy="45.1" r="14.5"/>
			<circle class="st1" cx="28.7" cy="45.1" r="11.3"/>
			<g>
				<circle class="st2" cx="28.7" cy="45.1" r="12.9"/>
			</g>
		</g>
	</g>
	<g>
		<g>
			<circle class="st0" cx="58.1" cy="15.5" r="14.5"/>
			<circle class="st1" cx="58.1" cy="15.5" r="11.3"/>
			<g>
				<circle class="st2" cx="58.1" cy="15.5" r="12.9"/>
			</g>
		</g>
	</g>
	<g>
		<path id="Fill-1_2_" class="st3" d="M9.1,61.1h26.8c3.9,0,7,3.1,7,7v3.5c0,3.9-3.1,7-7,7H9.1v19.8h52.4V43.6H9.1V61.1z"/>
		<path id="Stroke-2_2_" class="st4" d="M9.1,43.6v17.5h26.8c3.9,0,7,3.1,7,7v3.5c0,3.9-3.1,7-7,7H9.1v19.8h52.4V43.6H9.1L9.1,43.6z
			"/>
		<polygon id="Fill-41_2_" class="st3" points="61.5,43.6 65,43.6 65,98.3 61.5,98.3 		"/>
		<polygon id="Stroke-42_2_" class="st5" points="61.5,43.6 65,43.6 65,98.3 61.5,98.3 		"/>
		<path id="Fill-43_2_" class="st6" d="M35.9,61.1H6.5c-3.1,0-5.5,2.5-5.5,5.5v16.6c0-2.6,2.1-4.7,4.7-4.7h30.2c3.9,0,7-3.1,7-7
			v-3.5C42.9,64.2,39.8,61.1,35.9,61.1L35.9,61.1z"/>
		<path id="Stroke-44_2_" class="st7" d="M35.9,61.1H6.5c-3.1,0-5.5,2.5-5.5,5.5v16.6c0-2.6,2.1-4.7,4.7-4.7h30.2c3.9,0,7-3.1,7-7
			v-3.5C42.9,64.2,39.8,61.1,35.9,61.1L35.9,61.1z"/>
		<path id="Fill-45_2_" class="st8" d="M9.1,78.5H5.7c-2.6,0-4.7,2.1-4.7,4.7c0,2.6,2.1,4.7,4.7,4.7h3.5V78.5L9.1,78.5z"/>
		<path id="Stroke-46_2_" class="st7" d="M9.1,78.5H5.7c-2.6,0-4.7,2.1-4.7,4.7c0,2.6,2.1,4.7,4.7,4.7h3.5V78.5L9.1,78.5z"/>
		<path id="Stroke-48_2_" class="st7" d="M12.6,78.5H9.1v13.9c9-0.2,16.5-6,19.5-13.9H12.6L12.6,78.5z"/>
		<path id="Stroke-50_2_" class="st7" d="M9.1,49.5v11.6h18.5C24.2,54.3,17.2,49.7,9.1,49.5z"/>
		<path id="Stroke-51_2_" class="st7" d="M34.7,61.1v17.5"/>
		<path id="Fill-52_2_" class="st6" d="M61.5,89c-5.1,0-9.3,4.2-9.3,9.3h9.3V89L61.5,89z"/>
		<path id="Stroke-53_2_" class="st4" d="M61.5,89c-5.1,0-9.3,4.2-9.3,9.3h9.3V89L61.5,89z"/>
		<path id="Fill-54_2_" class="st6" d="M52.2,43.6c0,5.1,4.2,9.3,9.3,9.3v-9.3H52.2L52.2,43.6z"/>
		<path id="Stroke-55_2_" class="st4" d="M52.2,43.6c0,5.1,4.2,9.3,9.3,9.3v-9.3H52.2L52.2,43.6z"/>
	</g>
</g>
</svg>
