<?xml version="1.0" encoding="utf-8"?>
<!-- Generator: Adobe Illustrator 19.2.1, SVG Export Plug-In . SVG Version: 6.00 Build 0)  -->
<svg version="1.1" id="Layer_1" xmlns="http://www.w3.org/2000/svg" xmlns:xlink="http://www.w3.org/1999/xlink" x="0px" y="0px"
	 viewBox="0 0 85.7 80.4" style="enable-background:new 0 0 85.7 80.4;" xml:space="preserve">
<style type="text/css">
	.st0{fill:#FFD907;stroke:#5D6782;stroke-width:2;stroke-linecap:round;stroke-linejoin:round;}
	.st1{fill:#9D8AC0;stroke:#5D6782;stroke-width:2;stroke-linecap:round;stroke-linejoin:round;}
	.st2{fill:none;stroke:#5D6782;stroke-width:2;stroke-linecap:round;stroke-dasharray:0,5.8784;}
	.st3{fill:#FFFFFF;}
	.st4{fill:none;stroke:#5D6782;stroke-width:2;stroke-linecap:round;stroke-linejoin:round;}
	.st5{fill:#8DCFDD;stroke:#5D6782;stroke-width:2;stroke-linecap:round;stroke-linejoin:round;}
</style>
<g>
	<g>
		<g>
			<circle class="st0" cx="48.3" cy="25.2" r="24.2"/>
			<circle class="st1" cx="48.3" cy="25.2" r="18.9"/>
			<g>
				<circle class="st2" cx="48.3" cy="25.2" r="21.5"/>
			</g>
			<path class="st3" d="M55.5,25.1c-0.8-0.6-1.9-0.8-1.9-0.8s0.9-0.5,1.3-1.1c0.4-0.5,0.6-1.4,0.6-1.8c0-0.4,0.1-2.2-1.3-3.3
				c-1.1-0.8-2.3-1.1-4-1.2v-3.6H48v3.6h-1.7v-3.6h-2.2v3.6h-4.4v2.3H41c0.4,0,1,0,1.2,0.3c0.3,0.3,0.3,0.5,0.3,1l0,9.3
				c0,0.2,0,0.5-0.2,0.7c-0.2,0.2-0.4,0.2-0.8,0.2h-1.3l-0.5,2.7h4.4v3.6h2.2v-3.6H48v3.6h2.2v-3.6c0.6,0,1.1-0.1,1.4-0.1
				c0.6-0.1,2.1-0.3,3.4-1.2c1.4-0.9,1.7-2.4,1.7-3.9C56.9,26.7,56.3,25.7,55.5,25.1L55.5,25.1z M46.3,19.5c0,0,0.7-0.1,1.4-0.1
				c0.7,0,1.3,0,2.2,0.3c0.9,0.3,1.5,1,1.5,1.8c0,0.8-0.3,1.4-1,1.7c-0.6,0.3-1.5,0.5-2.3,0.6c-0.8,0-1.9,0-1.9,0V19.5z M51.4,30.2
				c-0.5,0.3-1.5,0.5-2.5,0.6c-1,0.1-2.5,0-2.5,0V26c0,0,1.4-0.1,2.5,0c1.1,0.1,2,0.4,2.5,0.6c0.4,0.2,1.2,0.7,1.2,1.8
				C52.5,29.5,51.9,29.9,51.4,30.2z"/>
		</g>
	</g>
	<polyline class="st4" points="1,13.1 9.1,13.1 19.4,71.9 67.4,71.9 	"/>
	<polyline class="st4" points="78.4,23 84.7,23 82.9,31.6 81.1,40.2 79.2,48.8 77.4,57.4 62.7,57.4 48.1,57.4 33.4,57.4 18.8,57.4 	
		"/>
	<line class="st4" x1="11.2" y1="23" x2="18.4" y2="23"/>
	<circle class="st5" cx="19.9" cy="73.7" r="5.7"/>
	<circle class="st5" cx="64.9" cy="73.7" r="5.7"/>
</g>
</svg>
