<?xml version="1.0" encoding="utf-8"?>
<!-- Generator: Adobe Illustrator 19.2.1, SVG Export Plug-In . SVG Version: 6.00 Build 0)  -->
<svg version="1.1" id="Layer_1" xmlns="http://www.w3.org/2000/svg" xmlns:xlink="http://www.w3.org/1999/xlink" x="0px" y="0px"
	 viewBox="0 0 255.9 61.4" style="enable-background:new 0 0 255.9 61.4;" xml:space="preserve">
<style type="text/css">
	.st0{opacity:0.99;}
	.st1{fill:#394A53;}
	.st2{fill:#99A8B1;}
</style>
<g>
	<g class="st0">
		<path class="st1" d="M23.4,9.9c-1.7-0.8-3.3-1.2-5.1-1.2c-2.1,0-4.1,0.5-5.9,1.5s-3.2,2.4-4.2,4.2s-1.5,3.8-1.5,5.9
			c0,2.1,0.5,4.1,1.5,5.9c1,1.8,2.4,3.2,4.2,4.2c1.8,1,3.7,1.6,5.9,1.6c1.6,0,3.3-0.4,5-1.1c1.7-0.7,3.1-1.7,4.4-3l3.9,4.3
			c-1.8,1.8-3.9,3.3-6.3,4.4s-4.8,1.6-7.3,1.6c-3.3,0-6.4-0.8-9.1-2.4c-2.8-1.6-4.9-3.7-6.5-6.4S0,23.7,0,20.4s0.8-6.3,2.4-9
			S6.2,6.6,9,5c2.8-1.5,5.9-2.3,9.3-2.3c2.5,0,4.9,0.5,7.3,1.5s4.4,2.4,6.1,4.1l-3.9,4.8C26.5,11.8,25.1,10.7,23.4,9.9z"/>
		<path class="st1" d="M54.9,12.9c2.1,1.1,3.7,2.7,4.9,4.7s1.8,4.4,1.8,7c0,2.7-0.6,5-1.8,7.1c-1.2,2-2.8,3.6-4.9,4.7
			c-2.1,1.1-4.5,1.7-7.2,1.7c-2.8,0-5.2-0.6-7.3-1.7c-2.1-1.1-3.7-2.7-4.9-4.7s-1.8-4.4-1.8-7.1c0-2.6,0.6-5,1.8-7s2.8-3.6,4.9-4.7
			c2.1-1.1,4.5-1.7,7.3-1.7C50.4,11.2,52.8,11.7,54.9,12.9z M42.3,18.9c-1.4,1.5-2.1,3.4-2.1,5.8c0,2.4,0.7,4.3,2.1,5.8
			c1.4,1.5,3.2,2.2,5.4,2.2s3.9-0.7,5.3-2.2c1.4-1.5,2.1-3.4,2.1-5.8c0-2.4-0.7-4.3-2.1-5.8c-1.4-1.5-3.2-2.2-5.3-2.2
			C45.4,16.7,43.6,17.4,42.3,18.9z"/>
		<path class="st1" d="M72.9,1.1c0.7,0.7,1,1.6,1,2.8c0,1.1-0.3,2-1,2.7s-1.6,1.1-2.6,1.1s-1.9-0.4-2.6-1.1c-0.7-0.7-1-1.6-1-2.7
			c0-1.1,0.3-2,1-2.8C68.4,0.4,69.3,0,70.3,0S72.2,0.4,72.9,1.1z M67.1,11.4h6.4v26.4h-6.4V11.4z"/>
		<path class="st1" d="M104.6,13.9c1.7,1.8,2.6,4.3,2.6,7.4v16.5h-6.5V23.2c0-1.8-0.5-3.3-1.6-4.4c-1.1-1.1-2.5-1.6-4.3-1.6
			c-2.1,0-3.8,0.8-5.1,2.2c-1.2,1.4-1.9,3.2-1.9,5.4v13h-6.4V11.4h6.4v4.9c1.8-3.4,5-5.1,9.5-5.2C100.4,11.1,102.8,12.1,104.6,13.9z
			"/>
		<path class="st1" d="M114.6,3.2h7.6l11.5,22.3l11.4-22.3h7.6v34.6h-6.1V13l-10.8,21.2h-4.2L120.8,13v24.8h-6V3.2H114.6z"/>
		<path class="st1" d="M181.3,14.8c2.1,2.4,3.2,5.8,3.2,10.1c0,0.9,0,1.5,0,1.9H165c0.4,1.9,1.3,3.3,2.6,4.4s3,1.6,4.9,1.6
			c1.3,0,2.6-0.3,3.9-0.8c1.2-0.5,2.3-1.2,3.2-2.2l3.5,3.6c-1.3,1.4-2.9,2.6-4.8,3.4c-1.9,0.8-4,1.2-6.3,1.2c-2.7,0-5.1-0.6-7.1-1.7
			c-2.1-1.1-3.6-2.7-4.8-4.7c-1.1-2-1.7-4.4-1.7-7s0.6-5,1.7-7c1.1-2,2.7-3.6,4.8-4.8c2-1.1,4.4-1.7,7-1.7
			C176,11.2,179.2,12.4,181.3,14.8z M178.6,22.5c-0.1-1.9-0.7-3.5-1.9-4.6c-1.2-1.2-2.8-1.7-4.8-1.7c-1.9,0-3.4,0.6-4.7,1.7
			c-1.3,1.1-2,2.7-2.3,4.7L178.6,22.5L178.6,22.5z"/>
		<path class="st1" d="M205.4,36.2c-2.1,1.3-4.3,1.9-6.6,1.9s-4.1-0.7-5.6-2c-1.4-1.3-2.2-3.3-2.2-5.9v-13h-3.7v-4.7h3.8V5.2h6.4
			v7.3h7.6v4.7h-7.6v11.9c0,1.2,0.2,2.1,0.7,2.6s1.2,0.8,2.1,0.8c1,0,2.2-0.4,3.8-1.1L205.4,36.2z"/>
		<path class="st1" d="M220.5,12.5c1.5-0.9,3.3-1.4,5.4-1.4v6.2c-2.7-0.2-4.9,0.5-6.5,1.9S217,22.6,217,25v12.7h-6.4V11.4h6.4v5.1
			C217.8,14.8,219,13.4,220.5,12.5z"/>
		<path class="st1" d="M249.2,12.9c2.1,1.1,3.7,2.7,4.9,4.7s1.8,4.4,1.8,7c0,2.7-0.6,5-1.8,7.1c-1.2,2-2.8,3.6-4.9,4.7
			c-2.1,1.1-4.5,1.7-7.2,1.7c-2.8,0-5.2-0.6-7.3-1.7c-2.1-1.1-3.7-2.7-4.9-4.7s-1.8-4.4-1.8-7.1c0-2.6,0.6-5,1.8-7s2.8-3.6,4.9-4.7
			c2.1-1.1,4.5-1.7,7.3-1.7C244.7,11.2,247.1,11.7,249.2,12.9z M236.5,18.9c-1.4,1.5-2.1,3.4-2.1,5.8c0,2.4,0.7,4.3,2.1,5.8
			c1.4,1.5,3.2,2.2,5.4,2.2s3.9-0.7,5.3-2.2c1.4-1.5,2.1-3.4,2.1-5.8c0-2.4-0.7-4.3-2.1-5.8c-1.4-1.5-3.2-2.2-5.3-2.2
			C239.7,16.7,237.9,17.4,236.5,18.9z"/>
	</g>
	<g>
		<path class="st2" d="M2.3,52.1h2.1v9.1H2.3V52.1z"/>
		<path class="st2" d="M13.4,52.1h2v9.1h-1.9L9,55.3v5.9H7v-9.1h1.9l4.4,5.9v-5.9H13.4z"/>
		<path class="st2" d="M24.3,52.1h2v9.1h-1.9L20,55.3v5.9h-2v-9.1h1.9l4.4,5.9V52.1z"/>
		<path class="st2" d="M35.7,52.6c0.7,0.4,1.3,1,1.8,1.7s0.6,1.5,0.6,2.4s-0.2,1.7-0.6,2.4s-1,1.3-1.8,1.7c-0.7,0.4-1.6,0.6-2.5,0.6
			s-1.7-0.2-2.5-0.6c-0.7-0.4-1.3-1-1.8-1.7c-0.4-0.7-0.6-1.5-0.6-2.4s0.2-1.7,0.6-2.4s1-1.3,1.8-1.7c0.7-0.4,1.6-0.6,2.5-0.6
			C34.1,51.9,34.9,52.1,35.7,52.6z M31.8,54.1c-0.4,0.3-0.8,0.6-1,1.1c-0.3,0.4-0.4,0.9-0.4,1.5c0,0.5,0.1,1,0.4,1.5
			c0.3,0.4,0.6,0.8,1,1.1c0.4,0.3,0.9,0.4,1.4,0.4s1-0.1,1.4-0.4c0.4-0.3,0.8-0.6,1-1.1c0.2-0.4,0.4-0.9,0.4-1.5
			c0-0.5-0.1-1-0.4-1.5c-0.2-0.4-0.6-0.8-1-1.1s-0.9-0.4-1.4-0.4S32.2,53.9,31.8,54.1z"/>
		<path class="st2" d="M38.9,52.1h2.2l2.5,6.9l2.5-6.9h2.1l-3.6,9.1h-2.1L38.9,52.1z"/>
		<path class="st2" d="M56,61.2l-0.7-1.8H51l-0.7,1.8h-2.1l4-9.1h2.1l3.9,9.1H56z M51.7,57.8h2.9l-1.4-3.5L51.7,57.8z"/>
		<path class="st2" d="M57.9,52.1h7.6v1.7h-2.8v7.4h-2.1v-7.4h-2.8L57.9,52.1L57.9,52.1z"/>
		<path class="st2" d="M67.3,52.1h2.1v9.1h-2.1V52.1z"/>
		<path class="st2" d="M78.8,52.6c0.7,0.4,1.3,1,1.8,1.7c0.4,0.7,0.6,1.5,0.6,2.4s-0.2,1.7-0.6,2.4s-1,1.3-1.8,1.7
			c-0.7,0.4-1.6,0.6-2.5,0.6s-1.7-0.2-2.5-0.6c-0.7-0.4-1.3-1-1.8-1.7c-0.4-0.7-0.6-1.5-0.6-2.4s0.2-1.7,0.6-2.4s1-1.3,1.8-1.7
			c0.7-0.4,1.6-0.6,2.5-0.6C77.2,51.9,78.1,52.1,78.8,52.6z M74.9,54.1c-0.4,0.3-0.8,0.6-1,1.1c-0.3,0.4-0.4,0.9-0.4,1.5
			c0,0.5,0.1,1,0.4,1.5c0.3,0.4,0.6,0.8,1,1.1s0.9,0.4,1.4,0.4s1-0.1,1.4-0.4c0.4-0.3,0.8-0.6,1-1.1c0.2-0.4,0.4-0.9,0.4-1.5
			c0-0.5-0.1-1-0.4-1.5s-0.6-0.8-1-1.1s-0.9-0.4-1.4-0.4S75.4,53.9,74.9,54.1z"/>
		<path class="st2" d="M89.5,52.1h2v9.1h-1.9l-4.4-5.9v5.9h-2v-9.1h1.9l4.4,5.9V52.1z"/>
		<path class="st2" d="M104.4,52.9c0.6,0.6,1,1.3,1,2.3c0,1.1-0.3,1.9-1,2.5c-0.6,0.6-1.5,0.9-2.7,0.9h-1.8v2.6h-2.1v-9.1h3.9
			C102.9,52.1,103.8,52.4,104.4,52.9z M103,56.5c0.3-0.3,0.5-0.7,0.5-1.2s-0.2-0.9-0.5-1.1c-0.3-0.3-0.8-0.4-1.3-0.4H100v3.1h1.7
			C102.2,56.9,102.7,56.8,103,56.5z"/>
		<path class="st2" d="M114.1,52.6c0.7,0.4,1.3,1,1.8,1.7c0.4,0.7,0.6,1.5,0.6,2.4s-0.2,1.7-0.6,2.4s-1,1.3-1.8,1.7
			c-0.7,0.4-1.6,0.6-2.5,0.6s-1.7-0.2-2.5-0.6c-0.7-0.4-1.3-1-1.8-1.7c-0.4-0.7-0.6-1.5-0.6-2.4s0.2-1.7,0.6-2.4s1-1.3,1.8-1.7
			c0.7-0.4,1.6-0.6,2.5-0.6C112.5,51.9,113.4,52.1,114.1,52.6z M110.2,54.1c-0.4,0.3-0.8,0.6-1,1.1c-0.3,0.4-0.4,0.9-0.4,1.5
			c0,0.5,0.1,1,0.4,1.5c0.3,0.4,0.6,0.8,1,1.1s0.9,0.4,1.4,0.4s1-0.1,1.4-0.4c0.4-0.3,0.8-0.6,1-1.1c0.2-0.4,0.4-0.9,0.4-1.5
			c0-0.5-0.1-1-0.4-1.5s-0.6-0.8-1-1.1s-0.9-0.4-1.4-0.4S110.7,53.9,110.2,54.1z"/>
		<path class="st2" d="M129.5,52.1h2.1l-3.1,9.1h-2.1l-1.9-6.6l-1.9,6.6h-2.1l-3.1-9.1h2.2l2,7l2-7h2l2,7L129.5,52.1z"/>
		<path class="st2" d="M133.3,52.1h7v1.7h-4.9v2h4.4v1.7h-4.4v2h5v1.7h-7.1V52.1z"/>
		<path class="st2" d="M148.3,61.2l-1.4-2.6h-0.2h-1.9v2.6h-2.1v-9.1h4c1.2,0,2.1,0.3,2.8,0.8c0.7,0.6,1,1.3,1,2.3
			c0,0.7-0.1,1.3-0.4,1.8c-0.3,0.5-0.7,0.9-1.3,1.1l1.9,3L148.3,61.2L148.3,61.2z M144.7,56.9h1.9c0.6,0,1-0.1,1.3-0.4
			c0.3-0.3,0.5-0.7,0.5-1.2s-0.2-0.9-0.5-1.1c-0.3-0.3-0.8-0.4-1.3-0.4h-1.9V56.9z"/>
		<path class="st2" d="M152.8,52.1h7v1.7h-4.9v2h4.4v1.7h-4.4v2h5v1.7h-7.1V52.1z"/>
		<path class="st2" d="M168.5,52.7c0.7,0.4,1.3,0.9,1.7,1.6s0.6,1.5,0.6,2.4s-0.2,1.7-0.6,2.4s-1,1.2-1.7,1.6
			c-0.7,0.4-1.6,0.6-2.5,0.6h-3.8v-9.1h3.9C166.9,52.1,167.8,52.3,168.5,52.7z M167.4,59.1c0.4-0.2,0.7-0.6,0.9-1s0.3-0.9,0.3-1.5
			c0-0.5-0.1-1-0.4-1.5c-0.2-0.4-0.6-0.8-1-1s-0.9-0.4-1.4-0.4H164v5.7h1.9C166.6,59.5,167,59.4,167.4,59.1z"/>
		<path class="st2" d="M183.1,52.7c0.6,0.4,0.9,1,0.9,1.7c0,0.5-0.1,0.9-0.4,1.3c-0.3,0.4-0.7,0.6-1.2,0.7c0.6,0.1,1.1,0.4,1.4,0.8
			c0.3,0.4,0.5,0.9,0.5,1.5c0,0.8-0.3,1.4-0.9,1.9c-0.6,0.5-1.5,0.7-2.5,0.7h-4.3v-9.1h4.2C181.7,52.1,182.5,52.3,183.1,52.7z
			 M181.5,55.5c0.2-0.2,0.3-0.4,0.3-0.7s-0.1-0.6-0.3-0.7c-0.2-0.2-0.5-0.3-0.9-0.2h-2v2h2C181,55.8,181.3,55.7,181.5,55.5z
			 M181.8,59.2c0.3-0.2,0.4-0.5,0.4-0.8s-0.1-0.6-0.4-0.8c-0.3-0.2-0.7-0.3-1.1-0.3h-2v2.2h2C181.1,59.5,181.5,59.4,181.8,59.2z"/>
		<path class="st2" d="M194.2,52.1l-3.3,6.2v2.9h-2.1v-2.9l-3.4-6.2h2.1l2.3,4.1l2.3-4.1H194.2z"/>
		<path class="st2" d="M205,54.1c-0.4-0.2-0.8-0.3-1.3-0.3s-1,0.1-1.4,0.4c-0.4,0.3-0.8,0.6-1,1s-0.4,0.9-0.4,1.4s0.1,1,0.4,1.5
			c0.2,0.4,0.6,0.8,1,1c0.4,0.3,0.9,0.4,1.4,0.4c0.4,0,0.8-0.1,1.2-0.3s0.8-0.5,1.1-0.8l1.2,1.3c-0.5,0.5-1.1,0.9-1.7,1.2
			c-0.7,0.3-1.3,0.4-2,0.4c-0.9,0-1.7-0.2-2.4-0.6c-0.7-0.4-1.3-1-1.7-1.7s-0.6-1.5-0.6-2.4s0.2-1.7,0.6-2.4c0.4-0.7,1-1.3,1.8-1.7
			c0.7-0.4,1.6-0.6,2.5-0.6c0.7,0,1.3,0.1,2,0.4c0.6,0.3,1.2,0.6,1.6,1.1l-1.2,1.5C205.8,54.6,205.4,54.3,205,54.1z"/>
		<path class="st2" d="M214.8,61.2l-1.4-2.6h-0.2h-1.9v2.6h-2.1v-9.1h4c1.2,0,2.1,0.3,2.8,0.8c0.7,0.6,1,1.3,1,2.3
			c0,0.7-0.1,1.3-0.4,1.8c-0.3,0.5-0.7,0.9-1.3,1.1l1.9,3L214.8,61.2L214.8,61.2z M211.3,56.9h1.9c0.6,0,1-0.1,1.3-0.4
			c0.3-0.3,0.5-0.7,0.5-1.2s-0.2-0.9-0.5-1.1c-0.3-0.3-0.8-0.4-1.3-0.4h-1.9V56.9z"/>
		<path class="st2" d="M226.9,52.1l-3.3,6.2v2.9h-2.1v-2.9l-3.4-6.2h2.1l2.3,4.1l2.3-4.1H226.9z"/>
		<path class="st2" d="M235.1,52.9c0.6,0.6,1,1.3,1,2.3c0,1.1-0.3,1.9-1,2.5c-0.6,0.6-1.5,0.9-2.7,0.9h-1.8v2.6h-2.1v-9.1h3.9
			C233.6,52.1,234.5,52.4,235.1,52.9z M233.7,56.5c0.3-0.3,0.5-0.7,0.5-1.2s-0.2-0.9-0.5-1.1c-0.3-0.3-0.8-0.4-1.3-0.4h-1.7v3.1h1.7
			C232.9,56.9,233.4,56.8,233.7,56.5z"/>
		<path class="st2" d="M237.1,52.1h7.6v1.7H242v7.4h-2.1v-7.4h-2.8L237.1,52.1L237.1,52.1z"/>
		<path class="st2" d="M252.8,52.6c0.7,0.4,1.3,1,1.8,1.7c0.4,0.7,0.6,1.5,0.6,2.4s-0.2,1.7-0.6,2.4c-0.4,0.7-1,1.3-1.8,1.7
			c-0.7,0.4-1.6,0.6-2.5,0.6s-1.7-0.2-2.5-0.6c-0.7-0.4-1.3-1-1.8-1.7s-0.6-1.5-0.6-2.4s0.2-1.7,0.6-2.4s1-1.3,1.8-1.7
			c0.7-0.4,1.6-0.6,2.5-0.6C251.2,51.9,252,52.1,252.8,52.6z M248.9,54.1c-0.4,0.3-0.8,0.6-1,1.1c-0.3,0.4-0.4,0.9-0.4,1.5
			c0,0.5,0.1,1,0.4,1.5c0.3,0.4,0.6,0.8,1,1.1s0.9,0.4,1.4,0.4s1-0.1,1.4-0.4c0.4-0.3,0.8-0.6,1-1.1c0.2-0.4,0.4-0.9,0.4-1.5
			c0-0.5-0.1-1-0.4-1.5c-0.2-0.4-0.6-0.8-1-1.1s-0.9-0.4-1.4-0.4C249.8,53.7,249.3,53.9,248.9,54.1z"/>
	</g>
</g>
</svg>
