<?xml version="1.0" encoding="utf-8"?>
<!-- Generator: Adobe Illustrator 19.2.1, SVG Export Plug-In . SVG Version: 6.00 Build 0)  -->
<svg version="1.1" id="Layer_1" xmlns="http://www.w3.org/2000/svg" xmlns:xlink="http://www.w3.org/1999/xlink" x="0px" y="0px"
	 viewBox="0 0 156.2 156.2" style="enable-background:new 0 0 156.2 156.2;" xml:space="preserve">
<style type="text/css">
	.st0{fill:#FEDA00;}
	.st1{fill:#394A53;}
</style>
<circle class="st0" cx="78.1" cy="78.1" r="78.1"/>
<circle class="st0" cx="78.1" cy="78.1" r="66.1"/>
<path class="st1" d="M78.1,145.7c-37.3,0-67.6-30.3-67.6-67.6s30.3-67.6,67.6-67.6s67.6,30.3,67.6,67.6S115.4,145.7,78.1,145.7z
	 M78.1,13.5c-35.7,0-64.7,29-64.7,64.7s29,64.7,64.7,64.7s64.7-29,64.7-64.7S113.8,13.5,78.1,13.5z"/>
<path class="st1" d="M106.8,105.1H49.4c-0.8,0-1.5-0.7-1.5-1.5V53.3c0-8.4,6.8-15.2,15.2-15.2H93c8.4,0,15.2,6.8,15.2,15.2v50.3
	C108.2,104.4,107.6,105.1,106.8,105.1z M50.9,102.2h54.4V53.3c0-6.8-5.5-12.3-12.3-12.3H63.2c-6.8,0-12.3,5.5-12.3,12.3V102.2z"/>
<path class="st1" d="M62.8,96.1c-3.3,0-6-2.7-6-6s2.7-6,6-6s6,2.7,6,6S66.1,96.1,62.8,96.1z M62.8,86.9c-1.7,0-3.1,1.4-3.1,3.1
	s1.4,3.1,3.1,3.1s3.1-1.4,3.1-3.1S64.5,86.9,62.8,86.9z"/>
<path class="st1" d="M93.4,96.1c-3.3,0-6-2.7-6-6s2.7-6,6-6s6,2.7,6,6S96.8,96.1,93.4,96.1z M93.4,86.9c-1.7,0-3.1,1.4-3.1,3.1
	s1.4,3.1,3.1,3.1s3.1-1.4,3.1-3.1S95.2,86.9,93.4,86.9z"/>
<path class="st1" d="M86.8,48.8H69.4c-0.8,0-1.5-0.7-1.5-1.5s0.7-1.5,1.5-1.5h17.4c0.8,0,1.5,0.7,1.5,1.5S87.6,48.8,86.8,48.8z"/>
<path class="st1" d="M105.9,119c-0.5,0-0.9-0.2-1.2-0.6l-9.2-13.1c-0.5-0.7-0.3-1.6,0.4-2c0.7-0.5,1.6-0.3,2,0.4l9.2,13.1
	c0.5,0.7,0.3,1.6-0.4,2C106.5,118.9,106.2,119,105.9,119z"/>
<path class="st1" d="M50.3,119c-0.3,0-0.6-0.1-0.8-0.3c-0.7-0.5-0.8-1.4-0.4-2l9.2-13.1c0.5-0.7,1.4-0.8,2-0.4
	c0.7,0.5,0.8,1.4,0.4,2l-9.2,13.1C51.2,118.8,50.7,119,50.3,119z"/>
<path class="st1" d="M52.5,115.7c-0.3,0-0.6-0.1-0.8-0.3c-0.7-0.5-0.8-1.4-0.4-2l7-9.9c0.5-0.7,1.4-0.8,2-0.4c0.7,0.5,0.8,1.4,0.4,2
	l-7,9.9C53.5,115.5,53,115.7,52.5,115.7z"/>
<path class="st1" d="M106.8,59.9H49.4c-0.8,0-1.5-0.7-1.5-1.5s0.7-1.5,1.5-1.5h57.3c0.8,0,1.5,0.7,1.5,1.5S107.6,59.9,106.8,59.9z"
	/>
<path class="st1" d="M106.8,78.3H49.4c-0.8,0-1.5-0.7-1.5-1.5s0.7-1.5,1.5-1.5h57.3c0.8,0,1.5,0.7,1.5,1.5S107.6,78.3,106.8,78.3z"
	/>
<path class="st1" d="M62.8,78.3c-0.3,0-0.7-0.1-1-0.4c-0.6-0.5-0.7-1.4-0.1-2l6.6-7.6c0.5-0.6,1.4-0.7,2-0.1c0.6,0.5,0.7,1.4,0.1,2
	l-6.6,7.6C63.6,78.1,63.2,78.3,62.8,78.3z"/>
<path class="st1" d="M71.5,78.3c-0.3,0-0.7-0.1-1-0.4c-0.6-0.5-0.7-1.4-0.1-2l13.3-15.1c0.5-0.6,1.4-0.7,2-0.1
	c0.6,0.5,0.7,1.4,0.1,2L72.5,77.8C72.3,78.1,71.9,78.3,71.5,78.3z"/>
<path class="st1" d="M99.1,109.7H57.2c-0.8,0-1.5-0.7-1.5-1.5s0.7-1.5,1.5-1.5h41.9c0.8,0,1.5,0.7,1.5,1.5S99.9,109.7,99.1,109.7z"
	/>
<path class="st1" d="M103.6,115.7H52.5c-0.8,0-1.5-0.7-1.5-1.5s0.7-1.5,1.5-1.5h51.1c0.8,0,1.5,0.7,1.5,1.5S104.4,115.7,103.6,115.7
	z"/>
<path class="st1" d="M78.1,136.8c-32.4,0-58.7-26.3-58.7-58.7s26.3-58.7,58.7-58.7s58.7,26.3,58.7,58.7
	C136.8,110.5,110.5,136.8,78.1,136.8z M78.1,22.3c-30.8,0-55.8,25-55.8,55.8s25,55.8,55.8,55.8s55.8-25,55.8-55.8
	S108.9,22.3,78.1,22.3z"/>
</svg>
