<?xml version="1.0" encoding="utf-8"?>
<!-- Generator: Adobe Illustrator 19.2.1, SVG Export Plug-In . SVG Version: 6.00 Build 0)  -->
<svg version="1.1" id="Layer_1" xmlns="http://www.w3.org/2000/svg" xmlns:xlink="http://www.w3.org/1999/xlink" x="0px" y="0px"
	 viewBox="0 0 75.3 80.2" style="enable-background:new 0 0 75.3 80.2;" xml:space="preserve">
<style type="text/css">
	.st0{fill:#A08AC9;stroke:#5C6783;stroke-width:2;stroke-linecap:round;stroke-linejoin:round;}
	.st1{fill:none;stroke:#5C6783;stroke-width:2;stroke-linecap:round;stroke-linejoin:round;}
	.st2{fill:#4CBDCF;stroke:#5C6783;stroke-width:2;stroke-linecap:round;stroke-linejoin:round;}
	.st3{fill:#FFFFFF;stroke:#5C6783;stroke-width:2;stroke-linecap:round;stroke-linejoin:round;}
	.st4{fill:#FFDB03;stroke:#5C6783;stroke-width:2;}
	.st5{fill:none;stroke:#5C6783;stroke-width:2;stroke-linecap:round;}
</style>
<g>
	<path class="st0" d="M69.9,13.8h-0.2c1.4,0.5,2.5,1.4,3.4,2.6c0.8,1.2,1.2,2.6,1.2,4.1c0,10.5-1.9,20.1-5.8,28.9
		c-3.4,7.3-7.8,13.7-13.4,19.2c-4.7,4.6-9.6,7.9-14.7,9.9c-1.8,0.8-3.7,0.8-5.5,0c-5.8-2.3-11.1-6.1-16-11.3
		c-5.4-5.6-9.6-12.2-12.7-19.7C2.7,39.1,1,30.1,1,20.5c0-1.5,0.4-2.9,1.2-4.1s1.9-2.1,3.4-2.6L34.9,1.6c1.8-0.8,3.7-0.8,5.7,0
		L69.9,13.8z"/>
</g>
<path class="st1" d="M36.7,16H40c4.8,0,8.8,3.9,8.8,8.8v13.9c0,4.8-3.9,8.8-8.8,8.8h-3.2c-4.8,0-8.8-3.9-8.8-8.8V24.7
	C28,19.9,31.9,16,36.7,16z"/>
<circle class="st2" cx="38.3" cy="45.3" r="17.5"/>
<path class="st3" d="M40.2,44.6v-4.1c0-1-0.8-1.8-1.8-1.8l0,0c-1,0-1.8,0.8-1.8,1.8v4.1c-1.5,0.8-2.4,2.5-1.9,4.3
	c0.3,1.4,1.5,2.5,2.8,2.8c2.5,0.6,4.8-1.3,4.8-3.8C42.2,46.5,41.4,45.2,40.2,44.6z"/>
<g>
	<path id="Fill-1261_1_" class="st4" d="M20.8,38.6c-4.9,0-8.9-4-8.9-8.9s4-8.9,8.9-8.9s8.9,4,8.9,8.9S25.7,38.6,20.8,38.6z"/>
	<g>
		<line class="st5" x1="17.6" y1="30.8" x2="19.4" y2="32.6"/>
		<line class="st5" x1="24.2" y1="27.7" x2="19.4" y2="32.6"/>
	</g>
</g>
</svg>
