<svg
 xmlns="http://www.w3.org/2000/svg"
 xmlns:xlink="http://www.w3.org/1999/xlink"
 width="17px" height="19px">
<path fill-rule="evenodd"  fill="#000000;"
 d="M16.995,17.901 C16.995,18.444 16.546,18.884 15.993,18.884 C15.439,18.884 14.991,18.444 14.991,17.901 C14.991,14.388 12.078,11.530 8.497,11.530 C4.916,11.530 2.003,14.388 2.003,17.901 C2.003,18.444 1.554,18.884 1.001,18.884 C0.448,18.884 -0.001,18.444 -0.001,17.901 C-0.001,14.480 2.112,11.537 5.123,10.254 C3.896,9.282 3.094,7.813 3.094,6.149 C3.094,3.227 5.518,0.849 8.497,0.849 C11.476,0.849 13.900,3.227 13.900,6.149 C13.900,7.813 13.098,9.282 11.871,10.254 C14.882,11.537 16.995,14.480 16.995,17.901 ZM8.497,2.815 C6.623,2.815 5.098,4.311 5.098,6.149 C5.098,7.987 6.623,9.482 8.497,9.482 C10.371,9.482 11.896,7.987 11.896,6.149 C11.896,4.311 10.371,2.815 8.497,2.815 Z"/>
</svg>
