<svg
 xmlns="http://www.w3.org/2000/svg"
 xmlns:xlink="http://www.w3.org/1999/xlink"
 width="14px" height="20px">
<path fill-rule="evenodd"  fill="#000000;"
 d="M13.801,13.078 C13.801,16.801 10.877,19.829 7.284,19.829 C3.691,19.829 0.767,16.801 0.767,13.078 C0.767,10.901 1.771,8.968 3.320,7.732 C3.305,7.663 3.279,7.599 3.279,7.525 L3.279,5.013 C3.279,2.725 5.076,0.864 7.284,0.864 C9.492,0.864 11.289,2.725 11.289,5.013 L11.289,7.525 C11.289,7.599 11.263,7.663 11.249,7.733 C12.797,8.968 13.801,10.901 13.801,13.078 ZM9.323,5.013 C9.323,3.847 8.408,2.900 7.284,2.900 C6.160,2.900 5.245,3.847 5.245,5.013 L5.245,6.671 C5.887,6.451 6.571,6.328 7.284,6.328 C7.997,6.328 8.681,6.451 9.323,6.671 L9.323,5.013 ZM7.284,8.363 C4.774,8.363 2.732,10.479 2.732,13.078 C2.732,15.678 4.774,17.793 7.284,17.793 C9.794,17.793 11.836,15.678 11.836,13.078 C11.836,10.479 9.794,8.363 7.284,8.363 ZM7.284,14.368 C6.596,14.368 6.039,13.791 6.039,13.078 C6.039,12.366 6.596,11.788 7.284,11.788 C7.972,11.788 8.529,12.366 8.529,13.078 C8.529,13.791 7.972,14.368 7.284,14.368 Z"/>
</svg>
