<svg
 xmlns="http://www.w3.org/2000/svg"
 xmlns:xlink="http://www.w3.org/1999/xlink"
 width="17px" height="13px">
<path fill-rule="evenodd"  fill="#000000;"
 d="M15.997,9.369 C15.444,9.369 14.995,8.927 14.995,8.380 C14.995,4.845 12.081,1.969 8.500,1.969 C4.918,1.969 2.004,4.845 2.004,8.380 C2.004,8.927 1.556,9.369 1.002,9.369 C0.449,9.369 -0.000,8.927 -0.000,8.380 C-0.000,3.754 3.813,-0.010 8.500,-0.010 C13.186,-0.010 17.000,3.754 17.000,8.380 C17.000,8.927 16.551,9.369 15.997,9.369 ZM8.500,7.470 C8.798,7.470 9.081,7.531 9.350,7.620 L10.999,5.962 C11.390,5.568 12.022,5.568 12.413,5.962 C12.804,6.355 12.804,6.991 12.413,7.385 L10.892,8.915 C11.104,9.306 11.236,9.748 11.236,10.224 C11.236,11.742 10.008,12.977 8.500,12.977 C6.991,12.977 5.763,11.742 5.763,10.224 C5.763,8.706 6.991,7.470 8.500,7.470 ZM8.500,10.964 C8.905,10.964 9.236,10.632 9.236,10.224 C9.236,9.815 8.905,9.483 8.500,9.483 C8.094,9.483 7.764,9.815 7.764,10.224 C7.764,10.632 8.094,10.964 8.500,10.964 Z"/>
</svg>
