<?xml version="1.0" encoding="utf-8"?>
<!-- Generator: Adobe Illustrator 22.0.0, SVG Export Plug-In . SVG Version: 6.00 Build 0)  -->
<svg version="1.1" id="Layer_1" xmlns="http://www.w3.org/2000/svg" xmlns:xlink="http://www.w3.org/1999/xlink" x="0px" y="0px"
	 viewBox="0 0 72.2 54.1" style="enable-background:new 0 0 72.2 54.1;" xml:space="preserve">
<style type="text/css">
	.st0{fill:#8DCFDD;stroke:#5D6782;stroke-width:2;}
	.st1{fill:#FFDA06;stroke:#5D6782;stroke-width:2;}
	.st2{fill:#9E88BF;stroke:#5D6782;stroke-width:2;stroke-linecap:round;stroke-linejoin:round;}
	.st3{fill:#FFFFFF;stroke:#5D6782;stroke-width:2;stroke-linecap:round;stroke-linejoin:round;}
</style>
<path class="st0" d="M63.2,53.1H6.6c-3.1,0-5.6-2.5-5.6-5.6V9.7V6.6C1,3.5,3.5,1,6.6,1h56.6c3.1,0,5.6,2.5,5.6,5.6v40.8
	C68.8,50.5,66.3,53.1,63.2,53.1z"/>
<circle class="st0" cx="15.8" cy="24.4" r="10.6"/>
<path class="st1" d="M15.8,24.4V13.8c-5.8,0-10.6,4.8-10.6,10.6S10,35.1,15.8,35.1s10.6-4.8,10.6-10.6c0-1.1-0.2-2.2-0.5-3.2
	L15.8,24.4z"/>
<path class="st2" d="M6.9,53.1l12.8-12.8l6.8,6.8l17.4-17.4l7.1,7.1l17.9-20.2v30.6c0,3.2-2.6,5.8-5.8,5.8L6.9,53.1z"/>
<circle class="st3" cx="19.9" cy="40.4" r="2.4"/>
<circle class="st3" cx="43.8" cy="30.2" r="2.4"/>
<circle class="st3" cx="68.8" cy="16.7" r="2.4"/>
<path class="st3" d="M6.5,1h56.8c3.1,0,5.5,2.5,5.5,5.5v3.1H1V6.5C1,3.5,3.5,1,6.5,1z"/>
<circle class="st1" cx="50.3" cy="5.3" r="1.9"/>
<circle class="st2" cx="56.6" cy="5.3" r="1.9"/>
<circle class="st0" cx="62.8" cy="5.3" r="1.9"/>
</svg>
