<?xml version="1.0" encoding="utf-8"?>
<!-- Generator: Adobe Illustrator 22.0.0, SVG Export Plug-In . SVG Version: 6.00 Build 0)  -->
<svg version="1.1" id="Layer_1" xmlns="http://www.w3.org/2000/svg" xmlns:xlink="http://www.w3.org/1999/xlink" x="0px" y="0px"
	 viewBox="0 0 36 54" style="enable-background:new 0 0 36 54;" xml:space="preserve">
<style type="text/css">
	.st0{fill:#87DEE8;stroke:#5C6783;stroke-width:1.8;stroke-linecap:round;}
	.st1{fill:#A08AC9;stroke:#5C6783;stroke-width:1.8;stroke-linecap:round;}
	.st2{fill:none;stroke:#5C6783;stroke-width:2;stroke-linecap:round;stroke-linejoin:round;}
	.st3{fill:#5C6783;}
	.st4{fill:#D75A4A;}
	.st5{fill:none;stroke:#5C6783;stroke-width:1.8;stroke-linecap:round;}
</style>
<g id="Page-1">
	<g id="Landing" transform="translate(-890.000000, -724.000000)">
		<g id="Group-7" transform="translate(183.000000, 715.000000)">
			<g id="price" transform="translate(708.000000, 0.000000)">
				<g id="price-icn" transform="translate(0.000000, 9.000000)">
					<path id="Stroke-4220" class="st0" d="M1.4,53C0.6,53,0,52.4,0,51.6V5.4C0,4.6,0.6,4,1.4,4h31.2C33.4,4,34,4.6,34,5.4v46.2
						c0,0.8-0.6,1.4-1.4,1.4H1.4z M20.6,11.3c0-2-1.6-3.6-3.6-3.6s-3.6,1.6-3.6,3.6s1.6,3.6,3.6,3.6S20.6,13.3,20.6,11.3z"/>
					<path id="Stroke-4220_1_" class="st1" d="M1.4,53C0.6,53,0,52.4,0,51.6V46h34v5.6c0,0.8-0.6,1.4-1.4,1.4H1.4z"/>
					<g id="round-euro" transform="translate(10.000000, 22.000000)">
						<path id="Shape" class="st2" d="M11,11.2C10.1,11.7,9.1,12,8,12c-3.3,0-6-2.7-6-6s2.7-6,6-6c1.1,0,2.1,0.3,3,0.8"/>
						<path id="Shape_1_" class="st2" d="M0,4h7"/>
						<path id="Shape_2_" class="st2" d="M0,8h7"/>
					</g>
					<path id="Fill-1825" class="st3" d="M24.1,42H9.9C9.4,42,9,41.6,9,41s0.4-1,0.9-1h14.2c0.5,0,0.9,0.4,0.9,1S24.6,42,24.1,42"/>
					<path id="Fill-2782" class="st4" d="M17,13c-0.6,0-1-0.4-1-0.9V0.9C16,0.4,16.4,0,17,0s1,0.4,1,0.9v11.1C18,12.6,17.6,13,17,13
						"/>
					<path id="Stroke-4222" class="st5" d="M17,12V1"/>
					<path id="Stroke-4223" class="st5" d="M1,46h32"/>
				</g>
			</g>
		</g>
	</g>
</g>
</svg>
