<?xml version="1.0" encoding="utf-8"?>
<!-- Generator: Adobe Illustrator 22.0.0, SVG Export Plug-In . SVG Version: 6.00 Build 0)  -->
<svg version="1.1" id="Layer_1" xmlns="http://www.w3.org/2000/svg" xmlns:xlink="http://www.w3.org/1999/xlink" x="0px" y="0px"
	 viewBox="0 0 54 54" style="enable-background:new 0 0 54 54;" xml:space="preserve">
<style type="text/css">
	.st0{fill:#87DEE8;}
	.st1{fill:#A08AC9;}
	.st2{fill:none;stroke:#5C6783;stroke-width:1.8;stroke-linecap:round;}
	.st3{fill:#87DEE8;stroke:#5C6783;stroke-width:1.8;stroke-linecap:round;}
	.st4{fill:#A08AC9;stroke:#5C6783;stroke-width:1.8;stroke-linecap:round;}
</style>
<g id="Page-1">
	<g id="Landing" transform="translate(-410.000000, -726.000000)">
		<g id="Group-7" transform="translate(183.000000, 715.000000)">
			<g id="coins" transform="translate(228.000000, 0.000000)">
				<g id="coin-icn" transform="translate(0.000000, 12.000000)">
					<path id="Fill-162" class="st0" d="M46.6,27.4c0,6.2-10.4,11.3-23.3,11.3c-7.1,0-13.5-1.5-17.7-4C7,40.3,16.8,44.9,28.7,44.9
						c12.9,0,23.3-5.5,23.3-11.7c0-2.7-2-5.2-5.4-7V27.4z"/>
					<path id="Fill-163" class="st1" d="M28.7,44.9c-12.9,0-23.3-5.5-23.3-11.7v7.6c0,6.2,10.4,11.3,23.3,11.3S52,47.1,52,40.8v-7.6
						C52,39.5,41.6,44.9,28.7,44.9"/>
					<path id="Fill-2641" class="st1" d="M27.8,22.5C14.9,22.5,4.5,17,4.5,10.8v7.6c0,6.2,10.4,11.3,23.3,11.3s23.3-5,23.3-11.3
						v-7.6C51.1,17,40.7,22.5,27.8,22.5"/>
					<path id="Fill-2653" class="st0" d="M27.8,18.8c-12.3,0-19.7-4.8-19.7-8.1c0-3.3,7.5-8.1,19.7-8.1s19.7,4.8,19.7,8.1
						C47.5,14.1,40.1,18.8,27.8,18.8"/>
					<path id="Stroke-2896" class="st2" d="M28.7,44.9c-12.9,0-23.3-5.5-23.3-11.7v7.6c0,6.2,10.4,11.3,23.3,11.3S52,47.1,52,40.8
						v-7.6C52,39.5,41.6,44.9,28.7,44.9L28.7,44.9z"/>
					<path id="Stroke-2897" class="st2" d="M9,39.4v7.5"/>
					<path id="Stroke-2898" class="st2" d="M48.4,46.8v-7.5"/>
					<path id="Stroke-2899" class="st2" d="M12.6,41.6V49"/>
					<path id="Stroke-2900" class="st2" d="M44.8,49v-7.4"/>
					<path id="Stroke-2901" class="st2" d="M16.1,43v7.3"/>
					<path id="Stroke-2902" class="st2" d="M41.2,50.3V43"/>
					<path id="Stroke-2903" class="st2" d="M20.6,44.2v7.2"/>
					<path id="Stroke-2904" class="st2" d="M36.8,51.4v-7.2"/>
					<path id="Stroke-2905" class="st2" d="M26,44.8V52"/>
					<path id="Stroke-2906" class="st2" d="M31.4,52v-7.2"/>
					<path id="Stroke-2907" class="st3" d="M51.1,10.8c0,6.2-10.4,11.7-23.3,11.7S4.5,17,4.5,10.8S14.9,0,27.8,0S51.1,4.6,51.1,10.8
						L51.1,10.8z"/>
					<path id="Stroke-2908" class="st2" d="M27.8,18.8c-12.3,0-19.7-4.8-19.7-8.1c0-3.3,7.5-7.2,19.7-7.2s19.7,3.9,19.7,7.2
						C47.5,14.1,40.1,18.8,27.8,18.8L27.8,18.8z"/>
					<path id="Stroke-2909" class="st2" d="M27.8,22.5C14.9,22.5,4.5,17,4.5,10.8v7.6c0,6.2,10.4,11.3,23.3,11.3s23.3-5,23.3-11.3
						v-7.6C51.1,17,40.7,22.5,27.8,22.5L27.8,22.5z"/>
					<path id="Stroke-2933" class="st4" d="M39.3,28.2c-4.2,2-9.8,3.3-16,3.3C10.4,31.4,0,26,0,19.8v7.6c0,6.2,10.4,11.3,23.3,11.3
						c12.9,0,23.3-5,23.3-11.3V25C44.7,26.3,42.2,27.4,39.3,28.2L39.3,28.2z"/>
					<path id="Stroke-2910" class="st2" d="M8.1,16.9v7.5"/>
					<path id="Stroke-2911" class="st2" d="M47.5,24.4v-7.5"/>
					<path id="Stroke-2912" class="st2" d="M11.7,19.1v7.4"/>
					<path id="Stroke-2913" class="st2" d="M43.9,26.5v-7.4"/>
					<path id="Stroke-2914" class="st2" d="M15.2,20.6v7.3"/>
					<path id="Stroke-2915" class="st2" d="M40.3,27.9v-7.3"/>
					<path id="Stroke-2916" class="st2" d="M19.7,21.7v7.2"/>
					<path id="Stroke-2917" class="st2" d="M35.9,28.9v-7.2"/>
					<path id="Stroke-2918" class="st2" d="M25.1,22.4v7.2"/>
					<path id="Stroke-2919" class="st2" d="M30.5,29.6v-7.2"/>
					<path id="Stroke-2920" class="st2" d="M3.6,25.9v7.5"/>
					<path id="Stroke-2921" class="st2" d="M43,33.4v-6.4"/>
					<path id="Stroke-2922" class="st2" d="M7.2,28.1v7.4"/>
					<path id="Stroke-2923" class="st2" d="M39.4,35.5v-7.4"/>
					<path id="Stroke-2924" class="st2" d="M10.8,29.5v7.3"/>
					<path id="Stroke-2925" class="st2" d="M35.9,36.9v-7.3"/>
					<path id="Stroke-2926" class="st2" d="M15.2,30.7v7.2"/>
					<path id="Stroke-2927" class="st2" d="M31.4,37.9v-7.2"/>
					<path id="Stroke-2928" class="st2" d="M20.6,31.4v7.2"/>
					<path id="Stroke-2929" class="st2" d="M26,38.6v-7.2"/>
					<path id="Stroke-2930" class="st2" d="M46,29.9c-2.4,5-11.6,8.7-22.7,8.7c-4.1,0-8-0.5-11.4-1.4c3.3,2.2,9,4.1,16.7,4.1
						c12.3,0,19.7-4.8,19.7-8.1C48.4,32.1,47.6,31,46,29.9L46,29.9z"/>
					<path id="Stroke-2931" class="st2" d="M46.6,27.4c0,6.2-10.4,11.3-23.3,11.3c-7.1,0-13.5-1.5-17.7-4
						C7,40.3,16.8,44.9,28.7,44.9c12.9,0,23.3-5.5,23.3-11.7c0-2.7-2-5.2-5.4-7V27.4z"/>
					<path id="Stroke-2932" class="st3" d="M27.8,29.6c-12.9,0-23.3-5-23.3-11.3v-5.1c-2.8,1.8-4.5,4-4.5,6.5
						C0,26,10.4,31.4,23.3,31.4c6.2,0,11.8-1.3,16-3.3C35.9,29.1,32,29.6,27.8,29.6L27.8,29.6z"/>
				</g>
			</g>
		</g>
	</g>
</g>
</svg>
