<?xml version="1.0" encoding="utf-8"?>
<!-- Generator: Adobe Illustrator 22.0.0, SVG Export Plug-In . SVG Version: 6.00 Build 0)  -->
<svg version="1.1" id="Layer_1" xmlns="http://www.w3.org/2000/svg" xmlns:xlink="http://www.w3.org/1999/xlink" x="0px" y="0px"
	 viewBox="0 0 86.4 66.4" style="enable-background:new 0 0 86.4 66.4;" xml:space="preserve">
<style type="text/css">
	.st0{fill:#87DEE8;stroke:#5C6783;stroke-width:2;stroke-linecap:round;stroke-linejoin:round;}
	.st1{fill:#A08AC9;stroke:#5C6783;stroke-width:2;stroke-linecap:round;stroke-linejoin:round;}
	.st2{opacity:2.000000e-02;fill:#FFFFFF;}
	.st3{fill:#7A839B;stroke:#5C6783;stroke-width:2;stroke-miterlimit:10;}
	.st4{fill:none;stroke:#5C6783;stroke-width:2;stroke-linecap:round;stroke-linejoin:round;}
	.st5{fill:#FFFFFF;}
	.st6{fill:#FFFFFF;stroke:#5C6783;stroke-width:2;stroke-linecap:round;stroke-linejoin:round;}
	.st7{fill:#D7F4F7;stroke:#5C6783;stroke-width:2;stroke-linecap:round;stroke-linejoin:round;}
</style>
<g>
	<g id="Rectangle-20_12_" transform="translate(15.000000, 2.000000) scale(1, -1) translate(-15.000000, -2.000000) ">
		<path class="st0" d="M10.8-0.9h7.1V3h-7.1V-0.9z"/>
	</g>
	<g id="Rectangle-20_9_" transform="translate(15.000000, 2.000000) scale(1, -1) translate(-15.000000, -2.000000) ">
		<path class="st0" d="M68.6-0.9h7.1V3h-7.1V-0.9z"/>
	</g>
	<g>
		<rect x="1" y="4.9" class="st1" width="84.4" height="48.6"/>
		<polyline class="st2" points="7.4,11.3 79,11.3 79,47.1 		"/>
	</g>
	<g>
		<g>
			<path class="st3" d="M26.5,45.9H7.3c-0.6,0-1-0.5-1-1V13.5c0-0.6,0.4-1,1-1h19.1c0.5,0,1,0.4,1,1v31.5
				C27.5,45.5,27,45.9,26.5,45.9z"/>
			<line class="st4" x1="6.3" y1="29.2" x2="27.5" y2="29.2"/>
			<g>
				<path class="st5" d="M13.9,22.6l1.7,2.6c0.4,0.7,0.8,1.3,1.2,2H17c0.4-0.7,0.8-1.3,1.2-2l1.7-2.6h2.4l-4.1,5.8l4.2,6.2h-2.5
					L18.1,32c-0.5-0.7-0.9-1.4-1.3-2.1h0c-0.4,0.7-0.8,1.4-1.3,2.1l-1.8,2.7h-2.4l4.3-6.2l-4.1-5.9H13.9z"/>
			</g>
		</g>
		<g>
			<path class="st3" d="M52.8,45.9H33.6c-0.5,0-1-0.5-1-1V13.5c0-0.6,0.5-1,1-1h19.1c0.5,0,1,0.4,1,1v31.5
				C53.8,45.5,53.3,45.9,52.8,45.9z"/>
			<line class="st4" x1="32.6" y1="29.2" x2="53.8" y2="29.2"/>
			<g>
				<path class="st5" d="M47.8,34.3c-0.6,0.3-1.7,0.6-3.2,0.6c-3.4,0-6-2.2-6-6.2c0-3.8,2.6-6.4,6.3-6.4c1.5,0,2.5,0.3,2.9,0.5
					l-0.4,1.3c-0.6-0.3-1.4-0.5-2.5-0.5c-2.8,0-4.7,1.8-4.7,5c0,3,1.7,4.9,4.7,4.9c1,0,1.9-0.2,2.6-0.5L47.8,34.3z"/>
			</g>
		</g>
		<g>
			<path class="st3" d="M79.1,45.9H60c-0.5,0-1-0.5-1-1V13.5c0-0.6,0.5-1,1-1h19.1c0.6,0,1,0.4,1,1v31.5
				C80.1,45.5,79.6,45.9,79.1,45.9z"/>
			<line class="st4" x1="59" y1="29.2" x2="80.1" y2="29.2"/>
			<g>
				<path class="st5" d="M73.9,29.4c-0.1-1.7-0.2-3.7-0.2-5.2h-0.1c-0.4,1.4-0.9,2.9-1.5,4.6L70,34.6h-1.2l-2-5.8
					c-0.6-1.7-1.1-3.3-1.4-4.7h0c0,1.5-0.1,3.6-0.2,5.4l-0.3,5.2h-1.5l0.8-12.2h2l2.1,5.9c0.5,1.5,0.9,2.8,1.2,4.1h0.1
					c0.3-1.2,0.7-2.6,1.3-4.1l2.2-5.9h2l0.8,12.2h-1.5L73.9,29.4z"/>
			</g>
		</g>
	</g>
	<g>
		<g id="Rectangle-20_8_">
			<rect x="12" y="56.3" class="st6" width="4.7" height="9.2"/>
		</g>
		<g id="Rectangle-20_7_">
			<rect x="9.8" y="53.5" class="st7" width="9" height="3.3"/>
		</g>
	</g>
	<g>
		<g id="Rectangle-20_11_">
			<rect x="69.9" y="56.3" class="st6" width="4.7" height="9.2"/>
		</g>
		<g id="Rectangle-20_10_">
			<rect x="67.7" y="53.5" class="st7" width="9" height="3.3"/>
		</g>
	</g>
</g>
</svg>
